<svg width="480" height="480" viewBox="0 0 480 480" fill="none" xmlns="http://www.w3.org/2000/svg">
<g opacity="0.08">
<path d="M270 165C270 168.978 268.42 172.794 265.607 175.607C262.794 178.42 258.978 180 255 180C235.109 180 216.032 187.902 201.967 201.967C187.902 216.032 180 235.109 180 255C180 258.978 178.42 262.794 175.607 265.607C172.794 268.42 168.978 270 165 270C161.022 270 157.206 268.42 154.393 265.607C151.58 262.794 150 258.978 150 255C150 235.109 142.098 216.032 128.033 201.967C113.968 187.902 94.8912 180 75 180C71.0218 180 67.2064 178.42 64.3934 175.607C61.5804 172.794 60 168.978 60 165C60 161.022 61.5804 157.206 64.3934 154.393C67.2064 151.58 71.0218 150 75 150C94.8912 150 113.968 142.098 128.033 128.033C142.098 113.968 150 94.8912 150 75C150 71.0218 151.58 67.2064 154.393 64.3934C157.206 61.5804 161.022 60 165 60C168.978 60 172.794 61.5804 175.607 64.3934C178.42 67.2064 180 71.0218 180 75C180 94.8912 187.902 113.968 201.967 128.033C216.032 142.098 235.109 150 255 150C258.978 150 262.794 151.58 265.607 154.393C268.42 157.206 270 161.022 270 165Z" fill="#1D9EE9"/>
<path d="M285 360C285 363.978 283.42 367.794 280.607 370.607C277.794 373.42 273.978 375 270 375C262.044 375 254.413 378.161 248.787 383.787C243.161 389.413 240 397.044 240 405C240 408.978 238.42 412.794 235.607 415.607C232.794 418.42 228.978 420 225 420C221.022 420 217.206 418.42 214.393 415.607C211.58 412.794 210 408.978 210 405C210 397.044 206.839 389.413 201.213 383.787C195.587 378.161 187.956 375 180 375C176.022 375 172.206 373.42 169.393 370.607C166.58 367.794 165 363.978 165 360C165 356.022 166.58 352.206 169.393 349.393C172.206 346.58 176.022 345 180 345C187.956 345 195.587 341.839 201.213 336.213C206.839 330.587 210 322.956 210 315C210 311.022 211.58 307.206 214.393 304.393C217.206 301.58 221.022 300 225 300C228.978 300 232.794 301.58 235.607 304.393C238.42 307.206 240 311.022 240 315C240 322.956 243.161 330.587 248.787 336.213C254.413 341.839 262.044 345 270 345C273.978 345 277.794 346.58 280.607 349.393C283.42 352.206 285 356.022 285 360Z" fill="#1D9EE9"/>
<path d="M420 255C420 258.978 418.42 262.794 415.607 265.607C412.794 268.42 408.978 270 405 270C389.087 270 373.826 276.321 362.574 287.574C351.321 298.826 345 314.087 345 330C345 333.978 343.42 337.794 340.607 340.607C337.794 343.42 333.978 345 330 345C326.022 345 322.206 343.42 319.393 340.607C316.58 337.794 315 333.978 315 330C315 314.087 308.679 298.826 297.426 287.574C286.174 276.321 270.913 270 255 270C251.022 270 247.206 268.42 244.393 265.607C241.58 262.794 240 258.978 240 255C240 251.022 241.58 247.206 244.393 244.393C247.206 241.58 251.022 240 255 240C270.913 240 286.174 233.679 297.426 222.426C308.679 211.174 315 195.913 315 180C315 176.022 316.58 172.206 319.393 169.393C322.206 166.58 326.022 165 330 165C333.978 165 337.794 166.58 340.607 169.393C343.42 172.206 345 176.022 345 180C345 195.913 351.321 211.174 362.574 222.426C373.826 233.679 389.087 240 405 240C408.978 240 412.794 241.58 415.607 244.393C418.42 247.206 420 251.022 420 255Z" fill="#1D9EE9"/>
</g>
</svg>