<svg width="278" height="295" viewBox="0 0 278 295" fill="none" xmlns="http://www.w3.org/2000/svg">
<circle opacity="0.16" cx="204" cy="204" r="204" fill="#8FD300"/>
<circle opacity="0.16" cx="204" cy="204.001" r="122.4" fill="#8FD300"/>
<g opacity="0.64" filter="url(#filter0_f_589_718)">
<circle cx="204" cy="204" r="81.6" fill="white"/>
</g>
<g filter="url(#filter1_d_589_718)">
<path fill-rule="evenodd" clip-rule="evenodd" d="M222.694 212.32C221.679 211.815 216.688 209.371 215.757 209.033C214.827 208.696 214.15 208.528 213.473 209.539C212.796 210.55 210.851 212.826 210.259 213.5C209.666 214.175 209.074 214.259 208.059 213.753C207.044 213.248 203.773 212.181 199.895 208.738C196.877 206.059 194.84 202.751 194.248 201.739C193.655 200.728 194.184 200.181 194.693 199.678C195.15 199.225 195.708 198.497 196.216 197.907C196.723 197.318 196.892 196.896 197.231 196.222C197.569 195.548 197.4 194.958 197.146 194.452C196.892 193.946 194.862 188.973 194.016 186.95C193.192 184.98 192.355 185.247 191.732 185.216C191.141 185.187 190.463 185.18 189.786 185.18C189.11 185.18 188.01 185.433 187.079 186.444C186.149 187.456 183.526 189.9 183.526 194.873C183.526 199.846 187.164 204.65 187.671 205.325C188.179 205.999 194.83 216.204 205.014 220.58C207.436 221.621 209.327 222.243 210.801 222.708C213.233 223.478 215.446 223.369 217.195 223.109C219.146 222.819 223.202 220.665 224.048 218.305C224.893 215.945 224.893 213.922 224.64 213.5C224.386 213.079 223.709 212.826 222.694 212.32ZM204.171 237.491H204.157C198.097 237.489 192.154 235.868 186.969 232.806L185.736 232.078L172.955 235.415L176.367 223.013L175.564 221.741C172.183 216.39 170.398 210.206 170.401 203.856C170.408 185.326 185.557 170.25 204.184 170.25C213.204 170.253 221.683 173.754 228.059 180.106C234.435 186.459 237.944 194.903 237.94 203.883C237.933 222.414 222.784 237.491 204.171 237.491ZM232.911 175.279C225.24 167.636 215.039 163.425 204.17 163.421C181.776 163.421 163.55 181.559 163.541 203.853C163.538 210.98 165.408 217.936 168.964 224.068L163.2 245.021L184.738 239.398C190.673 242.62 197.354 244.317 204.154 244.32H204.171C226.563 244.32 244.791 226.18 244.8 203.885C244.804 193.081 240.582 182.922 232.911 175.279Z" fill="#8FD300"/>
</g>
<defs>
<filter id="filter0_f_589_718" x="40.7999" y="40.8004" width="326.4" height="326.4" filterUnits="userSpaceOnUse" color-interpolation-filters="sRGB">
<feFlood flood-opacity="0" result="BackgroundImageFix"/>
<feBlend mode="normal" in="SourceGraphic" in2="BackgroundImageFix" result="shape"/>
<feGaussianBlur stdDeviation="40.8" result="effect1_foregroundBlur_589_718"/>
</filter>
<filter id="filter1_d_589_718" x="81.6002" y="81.8209" width="244.8" height="244.8" filterUnits="userSpaceOnUse" color-interpolation-filters="sRGB">
<feFlood flood-opacity="0" result="BackgroundImageFix"/>
<feColorMatrix in="SourceAlpha" type="matrix" values="0 0 0 0 0 0 0 0 0 0 0 0 0 0 0 0 0 0 127 0" result="hardAlpha"/>
<feOffset/>
<feGaussianBlur stdDeviation="40.8"/>
<feComposite in2="hardAlpha" operator="out"/>
<feColorMatrix type="matrix" values="0 0 0 0 1 0 0 0 0 1 0 0 0 0 1 0 0 0 1 0"/>
<feBlend mode="normal" in2="BackgroundImageFix" result="effect1_dropShadow_589_718"/>
<feBlend mode="normal" in="SourceGraphic" in2="effect1_dropShadow_589_718" result="shape"/>
</filter>
</defs>
</svg>