<svg width="218" height="320" viewBox="0 0 218 320" fill="none" xmlns="http://www.w3.org/2000/svg">
<path fill-rule="evenodd" clip-rule="evenodd" d="M60.0645 79.0665V79.9998C62.1998 138.665 73.1308 191.132 78.1314 196.263C89.7339 211.734 125.663 237.202 145.931 250.001C150.931 253.202 155.195 253.803 160 253.931C164.797 253.802 169.061 253 174.063 250.001C194.735 237.798 231.131 211.734 242.669 196.263C247.735 191.132 257.865 138.665 260.002 79.9998L260.065 79.0665C260.065 73.6651 256.601 68.9998 251.797 67.2652C226.665 58.5347 189.87 56.2006 160.064 56.2006C130.194 56.2006 93.3976 58.5347 68.3319 67.2652C63.5279 68.9998 60.0645 73.6651 60.0645 79.0665ZM0 40.5983L0.0638382 42.0659C3.46194 135.934 18.5278 218.465 26.6653 226.665C45.3311 251.473 105 290.001 137.265 311.067C144.935 316.069 152.266 319.803 160 320C167.735 319.803 175.064 316.07 182.734 311.067C215 290.001 274.667 251.472 293.335 226.665C301.465 218.465 316.537 135.935 319.935 42.0659L320 40.5983C320 31.9339 314.401 24.4002 306.666 21.6669C266.198 7.66575 208.131 0 160 0C111.862 0 53.7951 7.66501 13.3327 21.6669C5.59869 24.401 0 31.9339 0 40.5983ZM32.3308 62.3988C32.3308 55.4683 36.7965 49.5342 42.9301 47.3351C74.9351 36.2661 121.933 33.3325 160 33.3325C198.065 33.3325 245.066 36.2654 277.07 47.3344C283.205 49.5335 287.671 55.4675 287.671 62.398L287.597 63.5346C284.869 137.868 271.998 205.332 265.533 211.867C250.729 231.471 203.53 262.931 178.002 279.595C171.933 283.535 166.131 286.535 160 286.667C153.867 286.535 148.066 283.535 141.999 279.595C116.464 262.931 69.2645 231.471 54.4658 211.867C48.002 205.332 35.1301 137.867 32.3961 63.5346L32.3308 62.3988Z" fill="#D3E0BC"/>
</svg>
