<svg width="126" height="110" viewBox="0 0 126 110" fill="none" xmlns="http://www.w3.org/2000/svg">
<rect y="10.1973" width="117" height="100" rx="16" transform="rotate(-5 0 10.1973)" fill="#181C25"/>
<path d="M24.2422 37.3878C23.3788 37.4633 22.6421 37.3805 22.0321 37.1395C21.4354 36.8972 20.9732 36.5094 20.6454 35.9759C20.3165 35.4291 20.1155 34.7374 20.0423 33.9006L19.671 29.6568L18.6349 29.7474C18.3162 29.7753 18.0635 29.7171 17.8768 29.5728C17.6891 29.4153 17.5824 29.1904 17.5568 28.8981C17.5301 28.5926 17.5961 28.3526 17.7548 28.1781C17.9136 28.0037 18.1523 27.9025 18.4711 27.8746L19.5071 27.7839L19.3485 25.9709C19.3125 25.5591 19.3914 25.2377 19.5854 25.0065C19.7926 24.7743 20.0954 24.6407 20.4939 24.6058C20.8924 24.571 21.2072 24.6505 21.4383 24.8444C21.6694 25.0384 21.803 25.3412 21.839 25.753L21.9976 27.566L24.1096 27.3813C24.4283 27.3534 24.681 27.4116 24.8677 27.5559C25.0543 27.7001 25.1609 27.925 25.1877 28.2305C25.2132 28.5228 25.1472 28.7627 24.9897 28.9505C24.8309 29.125 24.5922 29.2262 24.2734 29.2541L22.1615 29.4389L22.5206 33.5432C22.5763 34.1808 22.7576 34.6467 23.0645 34.9411C23.3713 35.2355 23.8368 35.3554 24.4611 35.3008C24.6869 35.281 24.8844 35.2437 25.0536 35.1887C25.2228 35.1337 25.3732 35.0938 25.5049 35.0689C25.6631 35.0417 25.8006 35.0832 25.9173 35.1934C26.0329 35.2904 26.1057 35.5116 26.136 35.8569C26.1592 36.1226 26.1336 36.3657 26.0592 36.5864C25.997 36.7926 25.8564 36.9454 25.6376 37.0449C25.4696 37.1131 25.2478 37.1793 24.9724 37.2436C24.6981 37.3211 24.4547 37.3692 24.2422 37.3878ZM31.7715 36.7291C30.7621 36.8174 29.8674 36.6882 29.0876 36.3415C28.3077 35.9948 27.6788 35.4609 27.2008 34.7398C26.7216 34.0055 26.4367 33.1203 26.3461 32.0842C26.2775 31.3006 26.3294 30.5933 26.5018 29.9626C26.6862 29.3174 26.9784 28.7565 27.3784 28.2798C27.7772 27.7898 28.2723 27.4052 28.8635 27.126C29.4536 26.8334 30.1272 26.654 30.8843 26.5878C31.8938 26.4995 32.7884 26.6287 33.5683 26.9753C34.3481 27.322 34.9771 27.8559 35.4551 28.577C35.9331 29.2981 36.2174 30.1766 36.308 31.2127C36.3766 31.9964 36.3186 32.7108 36.1342 33.356C35.963 34 35.678 34.567 35.2792 35.057C34.8792 35.5337 34.3842 35.9183 33.7941 36.2108C33.2028 36.4901 32.5287 36.6628 31.7715 36.7291ZM31.606 34.8363C32.0974 34.7933 32.5186 34.636 32.8696 34.3643C33.2206 34.0927 33.4754 33.7157 33.634 33.2334C33.8047 32.7367 33.8592 32.1363 33.7976 31.4323C33.7046 30.3697 33.4097 29.5991 32.9128 29.1206C32.4147 28.6288 31.7937 28.4155 31.0499 28.4806C30.5584 28.5236 30.1372 28.6809 29.7862 28.9525C29.4341 29.2108 29.1726 29.5884 29.002 30.0852C28.8434 30.5675 28.7949 31.1606 28.8565 31.8646C28.9483 32.9139 29.2438 33.6911 29.7431 34.1962C30.2412 34.688 30.8621 34.9014 31.606 34.8363ZM40.3537 39.5518C39.9552 39.5867 39.6404 39.5071 39.4093 39.3132C39.1782 39.1193 39.0446 38.8164 39.0086 38.4047L38.0342 27.2672C37.9981 26.8555 38.0771 26.534 38.271 26.3029C38.4649 26.0718 38.7545 25.9394 39.1397 25.9057C39.5382 25.8708 39.853 25.9504 40.0841 26.1443C40.3152 26.3382 40.4488 26.6411 40.4848 27.0528L40.6208 28.6069L40.3493 28.0283C40.4893 27.3335 40.8468 26.7535 41.4217 26.2883C42.01 25.8219 42.7159 25.5527 43.5394 25.4806C44.3895 25.4062 45.1513 25.547 45.8249 25.903C46.5118 26.2578 47.0677 26.7981 47.4925 27.5238C47.9162 28.2363 48.174 29.1172 48.2658 30.1665C48.3564 31.2026 48.2561 32.1215 47.9649 32.9232C47.6725 33.7117 47.2255 34.3397 46.624 34.8073C46.0225 35.2748 45.29 35.5463 44.4266 35.6219C43.6164 35.6928 42.8884 35.5557 42.2425 35.2107C41.5955 34.8524 41.1372 34.3571 40.8678 33.7248L41.1068 33.7039L41.4991 38.1868C41.5351 38.5986 41.4495 38.9206 41.2423 39.1528C41.0483 39.384 40.7521 39.5169 40.3537 39.5518ZM43.5637 33.7901C44.0552 33.7471 44.4764 33.5898 44.8274 33.3182C45.1784 33.0466 45.4332 32.6696 45.5917 32.1873C45.7624 31.6905 45.817 31.0901 45.7554 30.3861C45.6624 29.3235 45.3675 28.553 44.8705 28.0745C44.3724 27.5827 43.7515 27.3693 43.0077 27.4344C42.5162 27.4774 42.095 27.6347 41.744 27.9063C41.3918 28.1647 41.1304 28.5422 40.9597 29.039C40.8011 29.5213 40.7527 30.1145 40.8143 30.8184C40.9061 31.8678 41.2016 32.645 41.7008 33.15C42.1989 33.6418 42.8199 33.8552 43.5637 33.7901ZM52.3002 38.5066C51.9017 38.5415 51.5869 38.462 51.3558 38.268C51.1247 38.0741 50.9911 37.7713 50.9551 37.3595L49.9807 26.222C49.9447 25.8103 50.0236 25.4888 50.2176 25.2577C50.4115 25.0266 50.7011 24.8942 51.0863 24.8605C51.4847 24.8256 51.7995 24.9052 52.0306 25.0991C52.2618 25.293 52.3953 25.5959 52.4314 26.0076L52.5673 27.5617L52.2959 26.9832C52.4358 26.2883 52.7933 25.7083 53.3683 25.2431C53.9565 24.7767 54.6624 24.5075 55.486 24.4354C56.336 24.361 57.0979 24.5019 57.7715 24.8578C58.4583 25.2127 59.0142 25.7529 59.4391 26.4787C59.8628 27.1911 60.1205 28.072 60.2123 29.1213C60.303 30.1574 60.2027 31.0763 59.9115 31.878C59.6191 32.6665 59.1721 33.2945 58.5706 33.7621C57.969 34.2296 57.2366 34.5012 56.3732 34.5767C55.563 34.6476 54.8349 34.5105 54.189 34.1655C53.542 33.8072 53.0838 33.3119 52.8143 32.6796L53.0534 32.6587L53.4456 37.1416C53.4816 37.5534 53.396 37.8754 53.1888 38.1077C52.9949 38.3388 52.6987 38.4718 52.3002 38.5066ZM55.5103 32.7449C56.0017 32.7019 56.4229 32.5446 56.7739 32.273C57.1249 32.0014 57.3797 31.6244 57.5383 31.1421C57.709 30.6453 57.7635 30.0449 57.7019 29.341C57.609 28.2783 57.314 27.5078 56.8171 27.0293C56.319 26.5375 55.698 26.3241 54.9542 26.3892C54.4628 26.4322 54.0415 26.5895 53.6905 26.8611C53.3384 27.1195 53.077 27.497 52.9063 27.9938C52.7477 28.4761 52.6992 29.0693 52.7608 29.7732C52.8526 30.8226 53.1481 31.5998 53.6474 32.1048C54.1455 32.5966 54.7664 32.81 55.5103 32.7449ZM67.5029 33.603C66.4004 33.6994 65.4327 33.5766 64.5997 33.2346C63.7667 32.8926 63.098 32.3622 62.5934 31.6434C62.1021 30.9235 61.8112 30.0455 61.7205 29.0095C61.6322 28 61.7608 27.0987 62.1063 26.3055C62.4651 25.5112 62.9912 24.8696 63.6846 24.3807C64.39 23.8773 65.2143 23.5843 66.1574 23.5018C66.8481 23.4414 67.4756 23.5002 68.0399 23.6784C68.6176 23.8554 69.1176 24.1396 69.5399 24.5309C69.9756 24.9211 70.3198 25.413 70.5725 26.0065C70.8373 26.5856 71.0028 27.2538 71.0691 28.0109C71.09 28.25 71.0199 28.4435 70.8589 28.5914C70.7099 28.7249 70.4827 28.805 70.1772 28.8317L63.7816 29.3913L63.6561 27.9567L69.2547 27.4669L68.9621 27.7937C68.9087 27.1827 68.7709 26.6794 68.549 26.2839C68.3403 25.8873 68.0539 25.5978 67.69 25.4155C67.3382 25.2187 66.9099 25.1424 66.4052 25.1866C65.8473 25.2354 65.3807 25.4101 65.0055 25.7106C64.6424 25.9967 64.3755 26.3881 64.2048 26.8848C64.0462 27.3672 63.9954 27.9338 64.0524 28.5846L64.0646 28.7241C64.1599 29.8132 64.4837 30.608 65.0361 31.1085C65.6006 31.5945 66.3809 31.7939 67.3771 31.7067C67.7225 31.6765 68.1042 31.6029 68.5223 31.4861C68.9524 31.3547 69.3508 31.166 69.7174 30.9197C69.9824 30.7359 70.2223 30.648 70.4372 30.656C70.6509 30.6507 70.8233 30.7092 70.9545 30.8316C71.0989 30.9528 71.1931 31.1119 71.2371 31.3088C71.28 31.4924 71.257 31.6885 71.1681 31.897C71.0926 32.1044 70.9417 32.2916 70.7154 32.4586C70.276 32.7915 69.7573 33.0577 69.159 33.2573C68.573 33.4424 68.0209 33.5576 67.5029 33.603ZM74.7715 32.9269C74.3597 32.9629 74.0316 32.8845 73.7872 32.6918C73.5549 32.4846 73.4208 32.1751 73.3848 31.7633L72.7259 24.2321C72.6898 23.8203 72.7688 23.4989 72.9627 23.2678C73.1566 23.0367 73.4462 22.9043 73.8314 22.8706C74.2166 22.8369 74.5248 22.917 74.7559 23.1109C74.987 23.3048 75.1206 23.6077 75.1566 24.0194L75.2664 25.2746L75.0672 25.2921C75.1834 24.4788 75.4958 23.8425 76.0043 23.3831C76.5129 22.9237 77.2153 22.6147 78.1116 22.4559C78.3882 22.405 78.6137 22.4588 78.7882 22.6176C78.9748 22.7619 79.0965 23.0055 79.1533 23.3485C79.2089 23.6783 79.1531 23.9575 78.9857 24.1863C78.8305 24.4007 78.5753 24.5435 78.2201 24.6147L77.7853 24.6929C76.982 24.8435 76.3931 25.1493 76.0185 25.6104C75.6428 26.0581 75.488 26.6606 75.5543 27.4177L75.9151 31.5419C75.9511 31.9537 75.8728 32.2818 75.68 32.5262C75.4861 32.7573 75.1832 32.8909 74.7715 32.9269ZM23.4514 65.5238C23.0529 65.5586 22.7381 65.4791 22.507 65.2852C22.2747 65.078 22.1406 64.7685 22.1045 64.3567L21.4456 56.8255C21.4096 56.4137 21.4886 56.0923 21.6825 55.8612C21.8764 55.6301 22.166 55.4977 22.5512 55.4639C22.9364 55.4302 23.2445 55.5104 23.4757 55.7043C23.7068 55.8982 23.8403 56.2011 23.8764 56.6128L23.9949 57.9676L23.7322 57.4887C23.9628 56.7592 24.3679 56.1884 24.9475 55.7763C25.5393 55.3498 26.227 55.1022 27.0107 55.0336C27.7943 54.9651 28.4513 55.0548 28.9816 55.3029C29.5119 55.5509 29.9294 55.9628 30.2341 56.5384C30.5376 57.1008 30.7288 57.8336 30.8079 58.7368L31.2297 63.5584C31.2657 63.9701 31.1873 64.2982 30.9946 64.5426C30.8006 64.7737 30.5044 64.9067 30.106 64.9416C29.7075 64.9764 29.3861 64.8975 29.1417 64.7047C28.9094 64.4975 28.7752 64.188 28.7392 63.7763L28.3278 59.0742C28.2616 58.3171 28.0673 57.7787 27.7448 57.4589C27.4357 57.1379 26.9822 57.0036 26.3845 57.0559C25.654 57.1198 25.0899 57.4034 24.6922 57.9066C24.3067 58.3954 24.1471 59.0184 24.2133 59.7755L24.595 64.1388C24.6694 64.9889 24.2882 65.4506 23.4514 65.5238ZM38.6759 64.2319C37.5735 64.3284 36.6058 64.2056 35.7728 63.8636C34.9398 63.5215 34.271 62.9911 33.7665 62.2724C33.2752 61.5525 32.9842 60.6745 32.8936 59.6384C32.8053 58.629 32.9339 57.7277 33.2794 56.9345C33.6382 56.1402 34.1643 55.4986 34.8576 55.0096C35.5631 54.5062 36.3874 54.2133 37.3305 54.1308C38.0211 54.0704 38.6487 54.1292 39.213 54.3074C39.7906 54.4844 40.2906 54.7685 40.713 55.1599C41.1487 55.5501 41.4929 56.0419 41.7456 56.6355C42.0104 57.2146 42.1759 57.8827 42.2421 58.6399C42.2631 58.8789 42.193 59.0725 42.0319 59.2204C41.883 59.3539 41.6558 59.434 41.3503 59.4607L34.9547 60.0202L34.8292 58.5857L40.4278 58.0959L40.1352 58.4227C40.0817 57.8117 39.944 57.3084 39.722 56.9129C39.5133 56.5163 39.227 56.2268 38.8631 56.0445C38.5113 55.8477 38.083 55.7714 37.5782 55.8156C37.0204 55.8644 36.5538 56.0391 36.1786 56.3396C35.8155 56.6256 35.5486 57.0171 35.3779 57.5138C35.2193 57.9962 35.1685 58.5627 35.2254 59.2136L35.2376 59.3531C35.3329 60.4422 35.6568 61.237 36.2092 61.7375C36.7737 62.2234 37.554 62.4228 38.5502 62.3357C38.8955 62.3055 39.2773 62.2319 39.6953 62.115C40.1255 61.9837 40.5239 61.7949 40.8905 61.5487C41.1555 61.3649 41.3954 61.277 41.6103 61.285C41.824 61.2797 41.9964 61.3382 42.1275 61.4606C42.272 61.5818 42.3662 61.7408 42.4102 61.9378C42.453 62.1214 42.43 62.3175 42.3412 62.526C42.2657 62.7334 42.1147 62.9206 41.8884 63.0876C41.4491 63.4205 40.9303 63.6867 40.3321 63.8863C39.746 64.0714 39.194 64.1866 38.6759 64.2319ZM45.2832 63.5535C44.991 63.5791 44.7383 63.5209 44.5251 63.3789C44.324 63.2225 44.2053 63.0121 44.1687 62.7476C44.1455 62.4819 44.234 62.1931 44.4342 61.8811L47.3133 57.614L47.4161 58.7895L44.0617 55.3287C43.7971 55.0574 43.6598 54.7883 43.6498 54.5215C43.6398 54.2547 43.7209 54.0334 43.8929 53.8578C44.077 53.6677 44.3152 53.5598 44.6074 53.5343C44.9129 53.5076 45.1699 53.5386 45.3785 53.6274C45.6003 53.7151 45.8074 53.8643 45.9998 54.075L48.6591 56.9341L47.7825 57.0108L49.9248 53.7316C50.091 53.4895 50.2691 53.3066 50.4591 53.1829C50.649 53.0592 50.8901 52.9846 51.1823 52.9591C51.4878 52.9323 51.7411 52.9972 51.9421 53.1536C52.1432 53.31 52.2554 53.521 52.2786 53.7867C52.3151 54.0511 52.2266 54.34 52.0131 54.6531L49.3271 58.6022L49.2295 57.4865L52.8023 61.149C53.0658 61.407 53.2025 61.6695 53.2124 61.9363C53.2224 62.2031 53.1353 62.4315 52.9512 62.6217C52.7803 62.8106 52.5422 62.9184 52.2367 62.9452C51.9444 62.9707 51.6941 62.9391 51.4855 62.8503C51.277 62.7614 51.0699 62.6123 50.8642 62.4027L47.9882 59.3618L48.825 59.2886L46.5407 62.781C46.3866 63.0086 46.2152 63.1909 46.0264 63.3279C45.8364 63.4516 45.5887 63.5268 45.2832 63.5535ZM59.9539 62.3704C59.0905 62.4459 58.3538 62.3631 57.7438 62.122C57.1471 61.8798 56.6849 61.4919 56.3571 60.9585C56.0282 60.4117 55.8272 59.72 55.754 58.8831L55.3827 54.6394L54.3467 54.73C54.0279 54.7579 53.7752 54.6997 53.5885 54.5554C53.4008 54.3978 53.2941 54.1729 53.2685 53.8807C53.2418 53.5752 53.3078 53.3352 53.4665 53.1607C53.6253 52.9862 53.864 52.885 54.1828 52.8572L55.2188 52.7665L55.0602 50.9534C55.0242 50.5417 55.1031 50.2202 55.2971 49.9891C55.5043 49.7568 55.8071 49.6233 56.2056 49.5884C56.6041 49.5536 56.9189 49.6331 57.15 49.827C57.3811 50.0209 57.5147 50.3238 57.5507 50.7355L57.7093 52.5486L59.8213 52.3639C60.14 52.336 60.3927 52.3942 60.5794 52.5384C60.766 52.6827 60.8727 52.9076 60.8994 53.2131C60.9249 53.5053 60.8589 53.7453 60.7014 53.9331C60.5427 54.1076 60.3039 54.2088 59.9851 54.2367L57.8732 54.4215L58.2323 58.5258C58.288 59.1634 58.4693 59.6293 58.7762 59.9237C59.083 60.2181 59.5485 60.338 60.1728 60.2833C60.3986 60.2636 60.5961 60.2262 60.7653 60.1713C60.9345 60.1163 61.0849 60.0764 61.2166 60.0515C61.3748 60.0243 61.5123 60.0658 61.629 60.176C61.7446 60.273 61.8175 60.4941 61.8477 60.8395C61.8709 61.1051 61.8453 61.3483 61.771 61.569C61.7087 61.7752 61.5681 61.928 61.3493 62.0274C61.1813 62.0957 60.9595 62.1619 60.6841 62.2262C60.4098 62.3037 60.1664 62.3518 59.9539 62.3704ZM28.4056 93.2374C27.5556 93.3118 26.7871 93.1716 26.1002 92.8168C25.4266 92.4608 24.8774 91.9199 24.4525 91.1942C24.0265 90.4552 23.7682 89.5677 23.6775 88.5316C23.5857 87.4823 23.6866 86.57 23.9801 85.7948C24.2725 85.0063 24.7195 84.3783 25.321 83.9108C25.9359 83.4421 26.6683 83.1706 27.5184 83.0962C28.3286 83.0253 29.05 83.1629 29.6826 83.5091C30.3285 83.8541 30.7861 84.3428 31.0556 84.975L30.8364 84.9942L30.3832 79.814C30.3472 79.4022 30.4262 79.0808 30.6201 78.8497C30.814 78.6186 31.1102 78.4856 31.5087 78.4507C31.9072 78.4159 32.222 78.4954 32.4531 78.6893C32.6975 78.8821 32.8377 79.1844 32.8737 79.5961L33.9091 91.4309C33.9452 91.8427 33.8668 92.1707 33.674 92.4151C33.4801 92.6463 33.1839 92.7792 32.7854 92.8141C32.3869 92.849 32.0721 92.7694 31.841 92.5755C31.6087 92.3683 31.4746 92.0588 31.4386 91.6471L31.3026 90.093L31.5741 90.6715C31.4353 91.3797 31.0784 91.9663 30.5034 92.4315C29.9284 92.8968 29.2292 93.1654 28.4056 93.2374ZM28.9374 91.2837C29.4288 91.2407 29.8501 91.0834 30.2011 90.8117C30.5521 90.5401 30.8068 90.1631 30.9654 89.6808C31.1361 89.184 31.1906 88.5837 31.129 87.8797C31.0361 86.8171 30.7411 86.0465 30.2442 85.568C29.7461 85.0762 29.1252 84.8629 28.3813 84.9279C27.8899 84.9709 27.4686 85.1282 27.1177 85.3999C26.7655 85.6582 26.5041 86.0358 26.3334 86.5325C26.1748 87.0149 26.1263 87.608 26.1879 88.312C26.2797 89.3613 26.5753 90.1385 27.0745 90.6436C27.5726 91.1354 28.1936 91.3487 28.9374 91.2837ZM39.8143 92.2393C39.1103 92.3009 38.4677 92.2233 37.8866 92.0064C37.3176 91.7751 36.8534 91.441 36.494 91.004C36.1478 90.5658 35.9491 90.0545 35.898 89.4701C35.8352 88.7528 35.9718 88.1721 36.3077 87.7278C36.6424 87.2702 37.2201 86.9118 38.0406 86.6526C38.8611 86.3935 39.9754 86.2023 41.3833 86.0791L42.3795 85.992L42.505 87.4265L41.5288 87.5119C40.7052 87.5839 40.0512 87.6813 39.5667 87.804C39.0823 87.9267 38.7425 88.097 38.5474 88.3148C38.3644 88.5182 38.288 88.7926 38.3183 89.1379C38.3566 89.5762 38.5407 89.9215 38.8706 90.1737C39.2005 90.4259 39.6378 90.5282 40.1824 90.4805C40.6207 90.4422 40.9972 90.3089 41.3118 90.0806C41.6386 89.8378 41.8859 89.5284 42.0537 89.1524C42.2216 88.7763 42.2852 88.3558 42.2445 87.891L42.0441 85.5997C41.986 84.9356 41.798 84.4702 41.4802 84.2035C41.1624 83.9369 40.6582 83.8338 39.9675 83.8942C39.5823 83.9279 39.168 84.011 38.7245 84.1435C38.2943 84.2748 37.8434 84.4749 37.3717 84.7437C37.1298 84.8853 36.9069 84.9383 36.703 84.9026C36.5124 84.8657 36.357 84.7722 36.2368 84.6221C36.1154 84.4588 36.046 84.2774 36.0286 84.0782C36.0111 83.879 36.0474 83.6817 36.1374 83.4865C36.2262 83.2779 36.3928 83.1161 36.637 83.0011C37.2259 82.6953 37.7947 82.4648 38.3432 82.3097C38.9051 82.1535 39.4185 82.0551 39.8834 82.0144C40.8397 81.9307 41.6362 82.0083 42.2727 82.247C42.9226 82.4846 43.4264 82.8889 43.7842 83.4599C44.1408 84.0176 44.3598 84.7614 44.4411 85.6911L44.8595 90.4729C44.8955 90.8846 44.8238 91.2121 44.6443 91.4554C44.4637 91.6853 44.1874 91.8166 43.8155 91.8491C43.4436 91.8816 43.142 91.8009 42.9109 91.607C42.6919 91.3986 42.5644 91.0886 42.5284 90.6768L42.4447 89.7205L42.6041 89.7065C42.5518 90.1796 42.4013 90.6009 42.1526 90.9707C41.916 91.326 41.5999 91.6146 41.2044 91.8366C40.809 92.0586 40.3456 92.1928 39.8143 92.2393ZM50.1859 94.9055C49.8937 94.9311 49.6477 94.8723 49.4478 94.7292C49.249 94.5993 49.1187 94.41 49.0568 94.1611C49.0081 93.911 49.0314 93.6413 49.1265 93.3519L50.2181 90.2249L50.3088 91.2609L45.9488 83.1902C45.8037 82.9085 45.74 82.6397 45.7577 82.3838C45.7755 82.1279 45.8776 81.9183 46.0641 81.7547C46.2627 81.5767 46.5413 81.472 46.8999 81.4407C47.2054 81.4139 47.4575 81.4655 47.6563 81.5953C47.8538 81.7119 48.0425 81.9564 48.2223 82.3288L51.4995 88.8078L50.9018 88.8601L53.0621 81.8853C53.1757 81.5006 53.3263 81.2331 53.5139 81.0829C53.7003 80.9193 53.9596 80.823 54.2917 80.794C54.5839 80.7684 54.8233 80.8278 55.0099 80.9721C55.1954 81.1031 55.3191 81.293 55.381 81.5419C55.4418 81.7775 55.4185 82.0472 55.3112 82.351L51.4372 93.8324C51.297 94.2194 51.1332 94.488 50.9455 94.6383C50.7579 94.7885 50.5047 94.8776 50.1859 94.9055ZM58.1257 90.5369C57.6741 90.5764 57.2966 90.4689 56.9933 90.2144C56.7032 89.9587 56.539 89.6117 56.5007 89.1733C56.4635 88.7483 56.5661 88.3913 56.8085 88.1024C57.0631 87.7991 57.4161 87.6277 57.8677 87.5882C58.3326 87.5475 58.7035 87.6556 58.9802 87.9124C59.2691 88.1548 59.4322 88.4886 59.4693 88.9136C59.5077 89.3519 59.4062 89.7222 59.165 90.0244C58.937 90.3254 58.5906 90.4962 58.1257 90.5369ZM66.0142 89.9471C64.9914 90.0366 64.0835 89.9086 63.2903 89.5631C62.496 89.2043 61.8593 88.6577 61.3802 87.9233C60.901 87.1889 60.6161 86.3037 60.5254 85.2677C60.4569 84.484 60.5088 83.7768 60.6811 83.146C60.8656 82.5008 61.1584 81.9466 61.5595 81.4832C61.9595 81.0065 62.4618 80.6279 63.0663 80.3475C63.6697 80.0538 64.3565 79.8733 65.1269 79.8059C65.5653 79.7675 66.042 79.786 66.5572 79.8614C67.0857 79.9356 67.5879 80.0925 68.064 80.3319C68.2881 80.4461 68.4415 80.5933 68.5242 80.7734C68.6069 80.9536 68.637 81.145 68.6146 81.3478C68.591 81.5372 68.5192 81.7108 68.3992 81.8685C68.2912 82.0118 68.146 82.1115 67.9636 82.1676C67.7799 82.2105 67.57 82.182 67.3337 82.0822C67.0264 81.9351 66.7165 81.835 66.404 81.7821C66.0904 81.7158 65.7941 81.6949 65.5152 81.7193C65.0768 81.7577 64.698 81.8644 64.3788 82.0396C64.0583 82.2014 63.7902 82.4257 63.5743 82.7122C63.3706 82.9844 63.2258 83.3183 63.14 83.7139C63.0541 84.1096 63.0333 84.5598 63.0774 85.0645C63.1634 86.0474 63.4639 86.8041 63.9787 87.3346C64.5057 87.8506 65.2009 88.0709 66.0643 87.9953C66.3432 87.9709 66.6253 87.9061 66.9105 87.8008C67.2091 87.6944 67.5035 87.5415 67.7939 87.3421C68.0092 87.2028 68.205 87.1455 68.3812 87.1703C68.5706 87.1938 68.7315 87.2735 68.8638 87.4091C68.995 87.5315 69.0826 87.6911 69.1266 87.888C69.1694 88.0717 69.1591 88.2599 69.0957 88.4529C69.0455 88.6446 68.9261 88.809 68.7373 88.946C68.3222 89.25 67.8742 89.4832 67.3932 89.6458C66.9122 89.8083 66.4525 89.9088 66.0142 89.9471ZM75.1575 89.1472C74.1481 89.2355 73.2534 89.1063 72.4735 88.7596C71.6937 88.4129 71.0648 87.8791 70.5868 87.158C70.1076 86.4236 69.8227 85.5384 69.7321 84.5024C69.6635 83.7187 69.7154 83.0115 69.8877 82.3807C70.0722 81.7355 70.3644 81.1746 70.7644 80.6979C71.1632 80.208 71.6583 79.8233 72.2495 79.5441C72.8396 79.2515 73.5132 79.0722 74.2703 79.0059C75.2798 78.9176 76.1744 79.0468 76.9543 79.3935C77.7341 79.7402 78.363 80.274 78.841 80.9951C79.319 81.7162 79.6034 82.5948 79.694 83.6308C79.7626 84.4145 79.7046 85.1289 79.5201 85.7741C79.349 86.4182 79.064 86.9852 78.6651 87.4751C78.2652 87.9518 77.7701 88.3364 77.1801 88.6289C76.5888 88.9082 75.9146 89.0809 75.1575 89.1472ZM74.9919 87.2544C75.4834 87.2114 75.9046 87.0541 76.2556 86.7825C76.6066 86.5109 76.8614 86.1339 77.02 85.6516C77.1906 85.1548 77.2452 84.5544 77.1836 83.8504C77.0906 82.7878 76.7957 82.0173 76.2988 81.5388C75.8007 81.047 75.1797 80.8336 74.4359 80.8987C73.9444 80.9417 73.5232 81.099 73.1722 81.3706C72.82 81.629 72.5586 82.0065 72.3879 82.5033C72.2294 82.9856 72.1809 83.5788 72.2425 84.2827C72.3343 85.3321 72.6298 86.1093 73.1291 86.6143C73.6271 87.1061 74.2481 87.3195 74.9919 87.2544ZM83.0111 88.3597C82.5595 88.3992 82.182 88.2917 81.8787 88.0372C81.5886 87.7815 81.4244 87.4345 81.3861 86.9961C81.3489 86.5711 81.4515 86.2141 81.6939 85.9252C81.9485 85.6219 82.3015 85.4505 82.7531 85.411C83.218 85.3703 83.5889 85.4784 83.8656 85.7352C84.1545 85.9776 84.3176 86.3114 84.3548 86.7364C84.3931 87.1747 84.2917 87.545 84.0504 87.8472C83.8224 88.1482 83.476 88.319 83.0111 88.3597ZM90.1957 87.8315C89.3855 87.9024 88.7019 87.815 88.145 87.5692C87.587 87.3102 87.149 86.8935 86.8311 86.319C86.5264 85.7434 86.3352 85.0106 86.2573 84.1206L85.8355 79.2991C85.7983 78.874 85.8772 78.5526 86.0723 78.3347C86.2663 78.1036 86.5625 77.9706 86.9609 77.9358C87.3594 77.9009 87.6742 77.9805 87.9053 78.1744C88.1486 78.3539 88.2888 78.6561 88.326 79.0812L88.7513 83.9426C88.8117 84.6333 88.9959 85.1325 89.3039 85.4401C89.6119 85.7478 90.0714 85.8749 90.6824 85.8214C91.3465 85.7633 91.8713 85.4899 92.2569 85.0011C92.6412 84.499 92.8003 83.8694 92.7341 83.1123L92.3506 78.7291C92.3134 78.304 92.3923 77.9826 92.5874 77.7648C92.7814 77.5336 93.0776 77.4006 93.476 77.3658C93.8745 77.3309 94.1893 77.4105 94.4204 77.6044C94.6637 77.7839 94.8039 78.0861 94.8411 78.5112L95.5 86.0424C95.5743 86.8925 95.2064 87.353 94.3962 87.4239C94.011 87.4576 93.7028 87.3775 93.4717 87.1835C93.2394 86.9763 93.1053 86.6668 93.0692 86.2551L92.9368 84.7409L93.268 85.3142C93.0518 86.0558 92.675 86.6442 92.1375 87.0794C91.6134 87.5134 90.9661 87.7641 90.1957 87.8315ZM99.4389 86.9827C99.0405 87.0175 98.7257 86.938 98.4945 86.7441C98.2623 86.5369 98.1281 86.2274 98.0921 85.8156L97.0567 73.9808C97.0207 73.5691 97.0996 73.2476 97.2935 73.0165C97.4875 72.7854 97.7837 72.6524 98.1821 72.6176C98.5806 72.5827 98.8954 72.6622 99.1265 72.8562C99.3709 73.0489 99.5111 73.3512 99.5472 73.7629L100.19 81.1149L100.23 81.1114L103.214 77.357C103.457 77.0681 103.671 76.8419 103.858 76.6784C104.044 76.5148 104.31 76.4179 104.655 76.3877C105.001 76.3575 105.268 76.4278 105.457 76.5987C105.658 76.7551 105.769 76.9595 105.792 77.2118C105.814 77.4642 105.716 77.727 105.499 78.0003L102.353 81.9696L102.262 80.9336L106.427 84.705C106.688 84.9364 106.817 85.1861 106.814 85.4541C106.823 85.7076 106.735 85.9295 106.551 86.1196C106.365 86.2964 106.12 86.3982 105.815 86.4249C105.443 86.4574 105.137 86.4105 104.899 86.2842C104.674 86.1566 104.415 85.9584 104.124 85.6894L100.34 82.3666L100.3 82.3701L100.583 85.5977C100.657 86.4478 100.276 86.9095 99.4389 86.9827Z" fill="white"/>
</svg>
