<svg width="208" height="320" viewBox="0 0 208 320" fill="none" xmlns="http://www.w3.org/2000/svg">
<path d="M272 88.982C271.909 88.5579 271.909 88.1192 272 87.6951C271.922 87.3238 271.922 86.9403 272 86.5689V85.1211L271.034 82.708C270.641 82.0495 270.152 81.4531 269.584 80.9384L268.134 79.6514H267.329L203.868 39.594L143.951 2.5931C142.565 1.49482 140.979 0.675337 139.28 0.180003H137.991C136.552 -0.0600011 135.082 -0.0600011 133.643 0.180003H132.032C130.161 0.593323 128.367 1.29913 126.717 2.27136L6.39899 77.0774L4.94938 78.2035L3.49976 79.4905L1.88908 80.6166L1.08375 81.5819L0.117335 83.995V85.4428V86.4081C-0.0391118 87.4749 -0.0391118 88.5587 0.117335 89.6255V230.068C0.111858 232.802 0.804067 235.492 2.12861 237.885C3.45315 240.277 5.36633 242.293 7.68753 243.742L128.488 318.387L130.904 319.353H132.193C134.918 320.216 137.844 320.216 140.569 319.353H141.857L144.273 318.387L264.108 244.868C266.429 243.419 268.342 241.403 269.667 239.011C270.991 236.618 271.683 233.928 271.678 231.194V90.7517C271.678 90.7517 272 89.6255 272 88.982ZM135.253 35.0895L163.923 52.7856L73.8864 108.448L45.0553 90.7517L135.253 35.0895ZM119.147 276.399L30.5592 222.346V119.548L119.147 174.245V276.399ZM135.253 145.931L104.489 127.431L194.526 71.6077L225.451 90.7517L135.253 145.931ZM239.947 221.863L151.36 276.882V174.245L239.947 119.548V221.863Z" fill="#D3E0BC"/>
</svg>
