<svg width="206" height="320" viewBox="0 0 206 320" fill="none" xmlns="http://www.w3.org/2000/svg">
<g clip-path="url(#clip0_688_5181)">
<mask id="path-1-inside-1_688_5181" fill="white">
<path d="M16.0713 312.518C16.0713 312.518 26.8779 313.349 26.3237 319.995C25.7695 326.641 31.0342 316.949 32.1426 312.795C33.2509 308.641 38.7927 312.795 38.7927 312.795C38.7927 312.795 41.0095 308.641 41.2866 307.81C41.5637 306.979 64.008 318.61 65.1163 318.887C66.2247 319.164 74.2603 302.272 74.2603 302.272C74.2603 302.272 105.572 311.687 106.957 311.41C108.342 311.133 107.788 306.426 107.788 306.426L123.582 307.256L121.92 300.61L135.774 310.579L151.846 309.472L159.881 314.733L175.398 308.087L177.061 310.302L181.494 305.318L189.253 304.487L191.469 292.856L178.723 294.795L177.061 288.148C177.061 288.148 168.194 287.871 168.748 287.041C169.302 286.21 180.386 286.21 180.386 286.21L183.711 279.84C183.711 279.84 179 278.456 178.723 278.179C178.446 277.902 186.759 278.179 186.759 278.179L190.638 275.686L187.59 271.533L193.132 272.917C193.132 272.917 209.48 257.409 205.324 246.886C201.168 236.363 185.928 230.824 179 231.378C172.073 231.932 173.367 237.748 173.367 237.748C173.367 237.748 168.748 237.195 167.271 233.318C165.793 229.441 168.379 229.811 173.367 227.964C178.354 226.118 172.811 214.487 170.411 210.056C168.01 205.625 170.597 207.101 172.998 205.994C175.398 204.886 170.226 197.316 167.64 192.701C165.054 188.086 168.887 187.623 170.965 185.685C173.043 183.746 167.086 179.869 164.176 177.516C161.267 175.162 160.158 164.638 150.322 164.223C140.485 163.808 144.78 132.376 146.165 127.53C147.551 122.684 141.039 126.976 137.714 113.869C134.389 100.761 128.478 105.561 125.337 105.192C122.196 104.823 113.145 108.7 111.668 105.007C110.19 101.314 117.209 102.053 119.795 102.423C122.381 102.793 121.458 101.315 122.751 99.2846C124.045 97.2542 131.987 105.931 131.618 98.9157C131.249 91.9006 126.999 92.2695 126.999 92.2695L129.031 89.8691C129.031 89.8691 149.905 71.038 150.09 63.099C150.275 55.1601 156.555 58.4832 156.555 52.9446C156.555 47.4061 135.865 43.898 132.54 44.4518C129.215 45.0057 124.967 39.836 122.565 41.4976C120.163 43.1591 115.915 45.9284 114.437 45.0057C112.96 44.083 105.201 46.4823 105.385 43.898C105.569 41.3137 109.079 38.1755 110.742 39.6521C112.405 41.1287 114.252 40.206 114.252 40.206C114.252 40.206 117.577 37.2517 117.946 36.329C118.315 35.4062 115.361 35.2213 113.882 35.2213C112.403 35.2213 112.034 34.2985 112.589 33.7447C113.143 33.1908 134.202 18.9756 134.756 18.0517C135.31 17.1279 138.819 12.5132 139.004 9.7439C139.189 6.97463 112.958 5.86692 112.589 7.34349C112.219 8.82007 109.818 11.2205 109.818 11.2205C109.818 11.2205 109.449 8.08234 108.709 6.0508C107.97 4.01925 101.505 -2.99588 100.397 1.43496C99.2882 5.86581 98.5489 8.63509 97.4406 8.63509C96.3322 8.63509 89.6821 11.2194 99.2882 15.2814C108.894 19.3433 97.9948 19.3433 94.4857 16.3891C90.9766 13.4348 90.4213 12.6971 91.1606 16.7579L91.3457 21.0038L87.2813 18.2345C87.2813 18.2345 84.649 20.9118 87.697 23.4042C90.745 25.8965 91.0221 25.4812 89.221 26.7273C87.4199 27.9735 86.7272 27.0043 84.5104 24.6504C82.2937 22.2965 81.601 26.7273 82.8479 29.3581C84.0948 31.989 81.601 30.8812 80.6312 29.3581C79.6614 27.835 78.1374 24.6504 77.029 26.7273C75.9206 28.8043 78.4145 35.866 80.6312 38.6352C82.8479 41.4045 81.601 50.2662 81.3239 50.6816C81.0468 51.097 74.3966 49.4354 75.0894 51.6508C75.7821 53.8663 82.4323 55.3894 80.2155 57.3279C77.9988 59.2663 75.2279 59.6817 73.1497 57.4663C71.0716 55.2509 65.2527 59.1279 68.7163 63.1433C72.1799 67.1588 69.9632 67.2972 67.1923 66.0511C64.4214 64.8049 60.4036 63.5587 60.6807 66.328C60.9578 69.0973 61.0963 69.5127 61.0963 69.5127C61.0963 69.5127 56.3858 68.9588 57.3556 71.1742C58.3254 73.3897 62.3432 72.005 63.1745 73.8051C64.0058 75.6051 61.6505 79.2051 59.1567 79.3436C56.6629 79.4821 51.5367 78.6513 54.4461 81.836C57.3556 85.0206 67.0537 83.0821 69.409 79.6205C71.7643 76.1589 72.5956 75.0512 73.2883 74.4974C73.981 73.9435 76.7519 71.8666 76.7519 71.8666L80.9448 69.5038L81.499 71.7192L75.403 75.8732L73.4634 80.0271L69.4456 83.9041C69.7227 86.6733 68.8914 92.7657 68.8914 92.7657L62.934 96.3658C62.934 96.3658 66.6747 96.7812 67.9216 95.9504C69.1685 95.1196 63.9038 100.381 63.9038 100.381L66.3976 102.874C66.3976 102.874 61.6871 105.366 61.1329 109.797C60.5787 114.228 57.2536 117.828 56.4223 118.382C55.5911 118.935 55.0369 121.705 57.5307 121.843C60.0245 121.982 63.0725 120.182 63.0725 120.182L64.7351 115.335L65.7049 112.428L67.2289 107.304L70.831 104.951L71.2467 100.52L70.1383 96.9197L82.1917 89.7195C82.1917 89.7195 81.7761 96.0889 83.023 98.9966C84.2699 101.904 89.119 102.735 89.119 102.735L81.6376 101.766C81.6376 101.766 79.0052 109.381 79.0052 110.074C79.0052 110.766 82.8845 118.105 82.8845 118.105L76.7885 124.336L70.9696 132.643L70.4154 137.49C70.4154 137.49 66.9518 138.043 66.5361 138.182C66.1205 138.32 72.9092 143.582 72.9092 143.582L74.7103 141.228L80.9448 150.367L83.1616 147.459C83.1616 147.459 82.7459 141.643 82.7459 141.367C82.7459 141.09 88.8419 148.982 88.8419 148.982L92.9983 148.151C92.9983 148.151 97.9859 143.444 99.9255 145.659C101.865 147.874 104.22 143.311 104.22 143.311L107.823 144.557L111.84 144.695L111.009 146.634C111.009 146.634 104.359 145.526 103.666 148.018C102.974 150.511 96.3233 158.542 96.3233 158.542C96.3233 158.542 98.4015 161.034 99.6484 164.911C100.895 168.788 98.9557 171.419 98.9557 171.419L100.48 172.803L103.251 171.419L102.974 176.542V177.234L106.16 178.203L110.455 173.219L111.425 175.988L108.238 180.142L109.485 182.08L108.792 184.019L103.389 183.188L102.281 187.204L106.16 190.111L106.022 192.05L100.48 196.065L101.311 200.773L108.515 205.896L106.022 208.666L100.895 201.909L98.6786 203.985L100.757 207.17L98.4015 209.801L96.6004 204.816C96.6004 204.816 92.3055 202.739 91.0586 204.539C89.8117 206.339 87.595 206.893 86.3481 205.37C85.1012 203.847 83.5772 201.77 83.5772 201.77C83.5772 201.77 81.2219 204.124 81.0834 204.539C80.9448 204.955 76.2343 204.816 76.2343 204.816L77.8968 201.216L71.2467 194.155L67.0903 198.032L71.1081 206.062L65.8434 212.432C65.8434 212.432 60.4402 215.893 60.4402 215.34C60.4402 214.786 62.6569 220.463 62.6569 220.463L70.2769 214.924L74.7103 220.601L74.8489 231.124L62.1027 242.201L56.0067 241.509L51.8504 246.632L40.6282 244.832L39.6584 254.94L42.4293 256.463L45.0616 261.033L51.1576 261.448L54.4827 257.709L60.7172 257.848L61.6871 267.125L66.259 266.71L68.6143 264.494L71.8009 265.463L74.1561 272.94L79.6979 277.648L84.2699 276.95L89.3961 271.55L92.9983 272.381L95.6306 273.766L89.8117 278.473L87.7336 283.181C87.7336 283.181 88.0106 283.874 87.595 283.874C87.1794 283.874 80.3907 285.397 80.3907 285.397L70.9696 279.443C70.9696 279.443 61.5485 279.997 61.2714 279.581C60.9943 279.166 56.9765 286.643 56.9765 286.643H53.6514L51.7118 283.043L48.1096 286.504L49.7722 292.043L41.1824 298.412C41.1824 298.412 39.1042 297.582 38.55 297.582C37.9958 297.582 36.0562 301.874 36.0562 301.874C36.0562 301.874 31.4842 304.228 31.6228 303.951C31.7613 303.674 30.0988 307.966 30.0988 307.966L19.985 308.088L15.8286 308.642L16.1057 312.519L16.0713 312.518Z"/>
</mask>
<path d="M16.0713 312.518C16.0713 312.518 26.8779 313.349 26.3237 319.995C25.7695 326.641 31.0342 316.949 32.1426 312.795C33.2509 308.641 38.7927 312.795 38.7927 312.795C38.7927 312.795 41.0095 308.641 41.2866 307.81C41.5637 306.979 64.008 318.61 65.1163 318.887C66.2247 319.164 74.2603 302.272 74.2603 302.272C74.2603 302.272 105.572 311.687 106.957 311.41C108.342 311.133 107.788 306.426 107.788 306.426L123.582 307.256L121.92 300.61L135.774 310.579L151.846 309.472L159.881 314.733L175.398 308.087L177.061 310.302L181.494 305.318L189.253 304.487L191.469 292.856L178.723 294.795L177.061 288.148C177.061 288.148 168.194 287.871 168.748 287.041C169.302 286.21 180.386 286.21 180.386 286.21L183.711 279.84C183.711 279.84 179 278.456 178.723 278.179C178.446 277.902 186.759 278.179 186.759 278.179L190.638 275.686L187.59 271.533L193.132 272.917C193.132 272.917 209.48 257.409 205.324 246.886C201.168 236.363 185.928 230.824 179 231.378C172.073 231.932 173.367 237.748 173.367 237.748C173.367 237.748 168.748 237.195 167.271 233.318C165.793 229.441 168.379 229.811 173.367 227.964C178.354 226.118 172.811 214.487 170.411 210.056C168.01 205.625 170.597 207.101 172.998 205.994C175.398 204.886 170.226 197.316 167.64 192.701C165.054 188.086 168.887 187.623 170.965 185.685C173.043 183.746 167.086 179.869 164.176 177.516C161.267 175.162 160.158 164.638 150.322 164.223C140.485 163.808 144.78 132.376 146.165 127.53C147.551 122.684 141.039 126.976 137.714 113.869C134.389 100.761 128.478 105.561 125.337 105.192C122.196 104.823 113.145 108.7 111.668 105.007C110.19 101.314 117.209 102.053 119.795 102.423C122.381 102.793 121.458 101.315 122.751 99.2846C124.045 97.2542 131.987 105.931 131.618 98.9157C131.249 91.9006 126.999 92.2695 126.999 92.2695L129.031 89.8691C129.031 89.8691 149.905 71.038 150.09 63.099C150.275 55.1601 156.555 58.4832 156.555 52.9446C156.555 47.4061 135.865 43.898 132.54 44.4518C129.215 45.0057 124.967 39.836 122.565 41.4976C120.163 43.1591 115.915 45.9284 114.437 45.0057C112.96 44.083 105.201 46.4823 105.385 43.898C105.569 41.3137 109.079 38.1755 110.742 39.6521C112.405 41.1287 114.252 40.206 114.252 40.206C114.252 40.206 117.577 37.2517 117.946 36.329C118.315 35.4062 115.361 35.2213 113.882 35.2213C112.403 35.2213 112.034 34.2985 112.589 33.7447C113.143 33.1908 134.202 18.9756 134.756 18.0517C135.31 17.1279 138.819 12.5132 139.004 9.7439C139.189 6.97463 112.958 5.86692 112.589 7.34349C112.219 8.82007 109.818 11.2205 109.818 11.2205C109.818 11.2205 109.449 8.08234 108.709 6.0508C107.97 4.01925 101.505 -2.99588 100.397 1.43496C99.2882 5.86581 98.5489 8.63509 97.4406 8.63509C96.3322 8.63509 89.6821 11.2194 99.2882 15.2814C108.894 19.3433 97.9948 19.3433 94.4857 16.3891C90.9766 13.4348 90.4213 12.6971 91.1606 16.7579L91.3457 21.0038L87.2813 18.2345C87.2813 18.2345 84.649 20.9118 87.697 23.4042C90.745 25.8965 91.0221 25.4812 89.221 26.7273C87.4199 27.9735 86.7272 27.0043 84.5104 24.6504C82.2937 22.2965 81.601 26.7273 82.8479 29.3581C84.0948 31.989 81.601 30.8812 80.6312 29.3581C79.6614 27.835 78.1374 24.6504 77.029 26.7273C75.9206 28.8043 78.4145 35.866 80.6312 38.6352C82.8479 41.4045 81.601 50.2662 81.3239 50.6816C81.0468 51.097 74.3966 49.4354 75.0894 51.6508C75.7821 53.8663 82.4323 55.3894 80.2155 57.3279C77.9988 59.2663 75.2279 59.6817 73.1497 57.4663C71.0716 55.2509 65.2527 59.1279 68.7163 63.1433C72.1799 67.1588 69.9632 67.2972 67.1923 66.0511C64.4214 64.8049 60.4036 63.5587 60.6807 66.328C60.9578 69.0973 61.0963 69.5127 61.0963 69.5127C61.0963 69.5127 56.3858 68.9588 57.3556 71.1742C58.3254 73.3897 62.3432 72.005 63.1745 73.8051C64.0058 75.6051 61.6505 79.2051 59.1567 79.3436C56.6629 79.4821 51.5367 78.6513 54.4461 81.836C57.3556 85.0206 67.0537 83.0821 69.409 79.6205C71.7643 76.1589 72.5956 75.0512 73.2883 74.4974C73.981 73.9435 76.7519 71.8666 76.7519 71.8666L80.9448 69.5038L81.499 71.7192L75.403 75.8732L73.4634 80.0271L69.4456 83.9041C69.7227 86.6733 68.8914 92.7657 68.8914 92.7657L62.934 96.3658C62.934 96.3658 66.6747 96.7812 67.9216 95.9504C69.1685 95.1196 63.9038 100.381 63.9038 100.381L66.3976 102.874C66.3976 102.874 61.6871 105.366 61.1329 109.797C60.5787 114.228 57.2536 117.828 56.4223 118.382C55.5911 118.935 55.0369 121.705 57.5307 121.843C60.0245 121.982 63.0725 120.182 63.0725 120.182L64.7351 115.335L65.7049 112.428L67.2289 107.304L70.831 104.951L71.2467 100.52L70.1383 96.9197L82.1917 89.7195C82.1917 89.7195 81.7761 96.0889 83.023 98.9966C84.2699 101.904 89.119 102.735 89.119 102.735L81.6376 101.766C81.6376 101.766 79.0052 109.381 79.0052 110.074C79.0052 110.766 82.8845 118.105 82.8845 118.105L76.7885 124.336L70.9696 132.643L70.4154 137.49C70.4154 137.49 66.9518 138.043 66.5361 138.182C66.1205 138.32 72.9092 143.582 72.9092 143.582L74.7103 141.228L80.9448 150.367L83.1616 147.459C83.1616 147.459 82.7459 141.643 82.7459 141.367C82.7459 141.09 88.8419 148.982 88.8419 148.982L92.9983 148.151C92.9983 148.151 97.9859 143.444 99.9255 145.659C101.865 147.874 104.22 143.311 104.22 143.311L107.823 144.557L111.84 144.695L111.009 146.634C111.009 146.634 104.359 145.526 103.666 148.018C102.974 150.511 96.3233 158.542 96.3233 158.542C96.3233 158.542 98.4015 161.034 99.6484 164.911C100.895 168.788 98.9557 171.419 98.9557 171.419L100.48 172.803L103.251 171.419L102.974 176.542V177.234L106.16 178.203L110.455 173.219L111.425 175.988L108.238 180.142L109.485 182.08L108.792 184.019L103.389 183.188L102.281 187.204L106.16 190.111L106.022 192.05L100.48 196.065L101.311 200.773L108.515 205.896L106.022 208.666L100.895 201.909L98.6786 203.985L100.757 207.17L98.4015 209.801L96.6004 204.816C96.6004 204.816 92.3055 202.739 91.0586 204.539C89.8117 206.339 87.595 206.893 86.3481 205.37C85.1012 203.847 83.5772 201.77 83.5772 201.77C83.5772 201.77 81.2219 204.124 81.0834 204.539C80.9448 204.955 76.2343 204.816 76.2343 204.816L77.8968 201.216L71.2467 194.155L67.0903 198.032L71.1081 206.062L65.8434 212.432C65.8434 212.432 60.4402 215.893 60.4402 215.34C60.4402 214.786 62.6569 220.463 62.6569 220.463L70.2769 214.924L74.7103 220.601L74.8489 231.124L62.1027 242.201L56.0067 241.509L51.8504 246.632L40.6282 244.832L39.6584 254.94L42.4293 256.463L45.0616 261.033L51.1576 261.448L54.4827 257.709L60.7172 257.848L61.6871 267.125L66.259 266.71L68.6143 264.494L71.8009 265.463L74.1561 272.94L79.6979 277.648L84.2699 276.95L89.3961 271.55L92.9983 272.381L95.6306 273.766L89.8117 278.473L87.7336 283.181C87.7336 283.181 88.0106 283.874 87.595 283.874C87.1794 283.874 80.3907 285.397 80.3907 285.397L70.9696 279.443C70.9696 279.443 61.5485 279.997 61.2714 279.581C60.9943 279.166 56.9765 286.643 56.9765 286.643H53.6514L51.7118 283.043L48.1096 286.504L49.7722 292.043L41.1824 298.412C41.1824 298.412 39.1042 297.582 38.55 297.582C37.9958 297.582 36.0562 301.874 36.0562 301.874C36.0562 301.874 31.4842 304.228 31.6228 303.951C31.7613 303.674 30.0988 307.966 30.0988 307.966L19.985 308.088L15.8286 308.642L16.1057 312.519L16.0713 312.518Z" fill="#E0F3FE" stroke="#1D9EE9" stroke-width="2" mask="url(#path-1-inside-1_688_5181)"/>
<path d="M42.9473 120.521L49.6094 124.567L48.8271 129.917L48.8154 130L48.8311 130.082L49.6621 134.513L49.709 134.762L49.9365 134.871L53.4346 136.554L53.7773 139.068L47.4678 144.607L46.8447 145.154L47.6201 145.45L50.5293 146.558L50.6553 146.605L50.7881 146.584L56.123 145.716L55.3633 156.979L46.9277 157.639L46.6553 157.659L46.5264 157.9L43.6006 163.349L40.7266 163.709L35.8984 160.224L35.4502 159.9L35.1738 160.379L33.8457 162.67L29.5332 161.423L31.2041 158.084L31.3896 157.712L31.0586 157.461L26.6572 154.128L25.8506 147.004L25.7891 146.458L25.251 146.57L19.2939 147.816L18.9648 147.886L18.9043 148.216L17.7305 154.599L11.877 154.724L0.830078 140.66L12.334 137.254L12.9063 137.085L12.6387 136.551L10.6807 132.636L16.7236 133.119L17.0518 133.146L17.2061 132.854L17.207 132.853C17.2076 132.851 17.2088 132.85 17.21 132.848C17.2124 132.843 17.2159 132.836 17.2207 132.827C17.2304 132.809 17.2449 132.782 17.2637 132.746C17.3012 132.675 17.3565 132.572 17.4268 132.439C17.5675 132.175 17.7686 131.796 18.0117 131.343C18.4983 130.435 19.1518 129.225 19.8174 128.016C20.4834 126.805 21.1596 125.6 21.6943 124.698C21.9624 124.246 22.1911 123.878 22.3623 123.626C22.3952 123.578 22.4247 123.535 22.4512 123.498C22.5187 123.528 22.5977 123.566 22.6865 123.611C22.9518 123.747 23.2747 123.932 23.5918 124.12C23.9074 124.308 24.2114 124.495 24.4365 124.637C24.5488 124.707 24.6408 124.767 24.7051 124.808C24.7369 124.828 24.7623 124.844 24.7793 124.854C24.7877 124.86 24.7945 124.864 24.7988 124.867C24.8009 124.869 24.8027 124.869 24.8037 124.87L24.8047 124.871L24.8887 124.925L24.9854 124.943L28.7266 125.636L29.0879 125.702L29.2598 125.377L31.6934 120.767L36.2793 122.295L36.5605 122.389L36.7773 122.188L38.5723 120.521H42.9473Z" fill="#E0F3FE" stroke="#1D9EE9"/>
</g>
<defs>
<clipPath id="clip0_688_5181">
<rect width="206" height="320" fill="white"/>
</clipPath>
</defs>
</svg>
