<svg width="206" height="288" viewBox="0 0 206 288" fill="none" xmlns="http://www.w3.org/2000/svg">
<g clip-path="url(#clip0_589_990)">
<mask id="path-1-inside-1_589_990" fill="white">
<path d="M16.0713 280.518C16.0713 280.518 26.8779 281.349 26.3237 287.995C25.7695 294.641 31.0342 284.949 32.1426 280.795C33.2509 276.641 38.7927 280.795 38.7927 280.795C38.7927 280.795 41.0095 276.641 41.2866 275.81C41.5637 274.979 64.008 286.61 65.1163 286.887C66.2247 287.164 74.2603 270.272 74.2603 270.272C74.2603 270.272 105.572 279.687 106.957 279.41C108.342 279.133 107.788 274.426 107.788 274.426L123.582 275.256L121.92 268.61L135.774 278.579L151.846 277.472L159.881 282.733L175.398 276.087L177.061 278.302L181.494 273.318L189.253 272.487L191.469 260.856L178.723 262.795L177.061 256.148C177.061 256.148 168.194 255.871 168.748 255.041C169.302 254.21 180.386 254.21 180.386 254.21L183.711 247.84C183.711 247.84 179 246.456 178.723 246.179C178.446 245.902 186.759 246.179 186.759 246.179L190.638 243.686L187.59 239.533L193.132 240.917C193.132 240.917 209.48 225.409 205.324 214.886C201.168 204.363 185.928 198.824 179 199.378C172.073 199.932 173.367 205.748 173.367 205.748C173.367 205.748 168.748 205.195 167.271 201.318C165.793 197.441 168.379 197.811 173.367 195.964C178.354 194.118 172.811 182.487 170.411 178.056C168.01 173.625 170.597 175.101 172.998 173.994C175.398 172.886 170.226 165.316 167.64 160.701C165.054 156.086 168.887 155.623 170.965 153.685C173.043 151.746 167.086 147.869 164.176 145.516C161.267 143.162 160.158 132.638 150.322 132.223C140.485 131.808 144.78 100.376 146.165 95.5301C147.551 90.6839 141.039 94.9763 137.714 81.8687C134.389 68.7612 128.478 73.5609 125.337 73.192C122.196 72.8232 113.145 76.7002 111.668 73.0071C110.19 69.3139 117.209 70.0528 119.795 70.4228C122.381 70.7927 121.458 69.3151 122.751 67.2846C124.045 65.2542 131.987 73.9309 131.618 66.9157C131.249 59.9006 126.999 60.2695 126.999 60.2695L129.031 57.8691C129.031 57.8691 149.905 39.038 150.09 31.099C150.275 23.1601 156.555 26.4832 156.555 20.9446C156.555 15.4061 135.865 11.898 132.54 12.4518C129.215 13.0057 124.967 7.83599 122.565 9.49755C120.163 11.1591 115.915 13.9284 114.437 13.0057C112.96 12.083 105.201 14.4823 105.385 11.898C105.569 9.31367 109.079 6.17553 110.742 7.65211C112.405 9.12868 114.252 8.20596 114.252 8.20596C114.252 8.20596 117.577 5.2517 117.946 4.32897C118.315 3.40625 115.361 3.22126 113.882 3.22126C112.403 3.22126 112.034 2.29854 112.589 1.74468C113.143 1.19083 134.202 -13.0244 134.756 -13.9483C135.31 -14.8721 138.819 -19.4868 139.004 -22.2561C139.189 -25.0254 112.958 -26.1331 112.589 -24.6565C112.219 -23.1799 109.818 -20.7795 109.818 -20.7795C109.818 -20.7795 109.449 -23.9177 108.709 -25.9492C107.97 -27.9807 101.505 -34.9959 100.397 -30.565C99.2882 -26.1342 98.5489 -23.3649 97.4406 -23.3649C96.3322 -23.3649 89.6821 -20.7806 99.2882 -16.7186C108.894 -12.6567 97.9948 -12.6567 94.4857 -15.6109C90.9766 -18.5652 90.4213 -19.3029 91.1606 -15.2421L91.3457 -10.9962L87.2813 -13.7655C87.2813 -13.7655 84.649 -11.0882 87.697 -8.5958C90.745 -6.10345 91.0221 -6.51884 89.221 -5.27267C87.4199 -4.02649 86.7272 -4.99574 84.5104 -7.34963C82.2937 -9.70351 81.601 -5.27267 82.8479 -2.64186C84.0948 -0.0110416 81.601 -1.11875 80.6312 -2.64186C79.6614 -4.16496 78.1374 -7.34963 77.029 -5.27267C75.9206 -3.19571 78.4145 3.86595 80.6312 6.63523C82.8479 9.40451 81.601 18.2662 81.3239 18.6816C81.0468 19.097 74.3966 17.4354 75.0894 19.6508C75.7821 21.8663 82.4323 23.3894 80.2155 25.3279C77.9988 27.2663 75.2279 27.6817 73.1497 25.4663C71.0716 23.2509 65.2527 27.1279 68.7163 31.1433C72.1799 35.1588 69.9632 35.2972 67.1923 34.0511C64.4214 32.8049 60.4036 31.5587 60.6807 34.328C60.9578 37.0973 61.0963 37.5127 61.0963 37.5127C61.0963 37.5127 56.3858 36.9588 57.3556 39.1742C58.3254 41.3897 62.3432 40.005 63.1745 41.8051C64.0058 43.6051 61.6505 47.2051 59.1567 47.3436C56.6629 47.4821 51.5367 46.6513 54.4461 49.836C57.3556 53.0206 67.0537 51.0821 69.409 47.6205C71.7643 44.1589 72.5956 43.0512 73.2883 42.4974C73.981 41.9435 76.7519 39.8666 76.7519 39.8666L80.9448 37.5038L81.499 39.7192L75.403 43.8732L73.4634 48.0271L69.4456 51.9041C69.7227 54.6733 68.8914 60.7657 68.8914 60.7657L62.934 64.3658C62.934 64.3658 66.6747 64.7812 67.9216 63.9504C69.1685 63.1196 63.9038 68.3813 63.9038 68.3813L66.3976 70.8736C66.3976 70.8736 61.6871 73.366 61.1329 77.7968C60.5787 82.2276 57.2536 85.8277 56.4223 86.3816C55.5911 86.9354 55.0369 89.7047 57.5307 89.8432C60.0245 89.9816 63.0725 88.1816 63.0725 88.1816L64.7351 83.3354L65.7049 80.4276L67.2289 75.3045L70.831 72.9506L71.2467 68.5197L70.1383 64.9197L82.1917 57.7195C82.1917 57.7195 81.7761 64.0889 83.023 66.9966C84.2699 69.9044 89.119 70.7351 89.119 70.7351L81.6376 69.7659C81.6376 69.7659 79.0052 77.3814 79.0052 78.0737C79.0052 78.7661 82.8845 86.1046 82.8845 86.1046L76.7885 92.3355L70.9696 100.643L70.4154 105.49C70.4154 105.49 66.9518 106.043 66.5361 106.182C66.1205 106.32 72.9092 111.582 72.9092 111.582L74.7103 109.228L80.9448 118.367L83.1616 115.459C83.1616 115.459 82.7459 109.643 82.7459 109.367C82.7459 109.09 88.8419 116.982 88.8419 116.982L92.9983 116.151C92.9983 116.151 97.9859 111.444 99.9255 113.659C101.865 115.874 104.22 111.311 104.22 111.311L107.823 112.557L111.84 112.695L111.009 114.634C111.009 114.634 104.359 113.526 103.666 116.018C102.974 118.511 96.3233 126.542 96.3233 126.542C96.3233 126.542 98.4015 129.034 99.6484 132.911C100.895 136.788 98.9557 139.419 98.9557 139.419L100.48 140.803L103.251 139.419L102.974 144.542V145.234L106.16 146.203L110.455 141.219L111.425 143.988L108.238 148.142L109.485 150.08L108.792 152.019L103.389 151.188L102.281 155.204L106.16 158.111L106.022 160.05L100.48 164.065L101.311 168.773L108.515 173.896L106.022 176.666L100.895 169.909L98.6786 171.985L100.757 175.17L98.4015 177.801L96.6004 172.816C96.6004 172.816 92.3055 170.739 91.0586 172.539C89.8117 174.339 87.595 174.893 86.3481 173.37C85.1012 171.847 83.5772 169.77 83.5772 169.77C83.5772 169.77 81.2219 172.124 81.0834 172.539C80.9448 172.955 76.2343 172.816 76.2343 172.816L77.8968 169.216L71.2467 162.155L67.0903 166.032L71.1081 174.062L65.8434 180.432C65.8434 180.432 60.4402 183.893 60.4402 183.34C60.4402 182.786 62.6569 188.463 62.6569 188.463L70.2769 182.924L74.7103 188.601L74.8489 199.124L62.1027 210.201L56.0067 209.509L51.8504 214.632L40.6282 212.832L39.6584 222.94L42.4293 224.463L45.0616 229.033L51.1576 229.448L54.4827 225.709L60.7172 225.848L61.6871 235.125L66.259 234.71L68.6143 232.494L71.8009 233.463L74.1561 240.94L79.6979 245.648L84.2699 244.95L89.3961 239.55L92.9983 240.381L95.6306 241.766L89.8117 246.473L87.7336 251.181C87.7336 251.181 88.0106 251.874 87.595 251.874C87.1794 251.874 80.3907 253.397 80.3907 253.397L70.9696 247.443C70.9696 247.443 61.5485 247.997 61.2714 247.581C60.9943 247.166 56.9765 254.643 56.9765 254.643H53.6514L51.7118 251.043L48.1096 254.504L49.7722 260.043L41.1824 266.412C41.1824 266.412 39.1042 265.582 38.55 265.582C37.9958 265.582 36.0562 269.874 36.0562 269.874C36.0562 269.874 31.4842 272.228 31.6228 271.951C31.7613 271.674 30.0988 275.966 30.0988 275.966L19.985 276.088L15.8286 276.642L16.1057 280.519L16.0713 280.518Z"/>
</mask>
<path d="M16.0713 280.518C16.0713 280.518 26.8779 281.349 26.3237 287.995C25.7695 294.641 31.0342 284.949 32.1426 280.795C33.2509 276.641 38.7927 280.795 38.7927 280.795C38.7927 280.795 41.0095 276.641 41.2866 275.81C41.5637 274.979 64.008 286.61 65.1163 286.887C66.2247 287.164 74.2603 270.272 74.2603 270.272C74.2603 270.272 105.572 279.687 106.957 279.41C108.342 279.133 107.788 274.426 107.788 274.426L123.582 275.256L121.92 268.61L135.774 278.579L151.846 277.472L159.881 282.733L175.398 276.087L177.061 278.302L181.494 273.318L189.253 272.487L191.469 260.856L178.723 262.795L177.061 256.148C177.061 256.148 168.194 255.871 168.748 255.041C169.302 254.21 180.386 254.21 180.386 254.21L183.711 247.84C183.711 247.84 179 246.456 178.723 246.179C178.446 245.902 186.759 246.179 186.759 246.179L190.638 243.686L187.59 239.533L193.132 240.917C193.132 240.917 209.48 225.409 205.324 214.886C201.168 204.363 185.928 198.824 179 199.378C172.073 199.932 173.367 205.748 173.367 205.748C173.367 205.748 168.748 205.195 167.271 201.318C165.793 197.441 168.379 197.811 173.367 195.964C178.354 194.118 172.811 182.487 170.411 178.056C168.01 173.625 170.597 175.101 172.998 173.994C175.398 172.886 170.226 165.316 167.64 160.701C165.054 156.086 168.887 155.623 170.965 153.685C173.043 151.746 167.086 147.869 164.176 145.516C161.267 143.162 160.158 132.638 150.322 132.223C140.485 131.808 144.78 100.376 146.165 95.5301C147.551 90.6839 141.039 94.9763 137.714 81.8687C134.389 68.7612 128.478 73.5609 125.337 73.192C122.196 72.8232 113.145 76.7002 111.668 73.0071C110.19 69.3139 117.209 70.0528 119.795 70.4228C122.381 70.7927 121.458 69.3151 122.751 67.2846C124.045 65.2542 131.987 73.9309 131.618 66.9157C131.249 59.9006 126.999 60.2695 126.999 60.2695L129.031 57.8691C129.031 57.8691 149.905 39.038 150.09 31.099C150.275 23.1601 156.555 26.4832 156.555 20.9446C156.555 15.4061 135.865 11.898 132.54 12.4518C129.215 13.0057 124.967 7.83599 122.565 9.49755C120.163 11.1591 115.915 13.9284 114.437 13.0057C112.96 12.083 105.201 14.4823 105.385 11.898C105.569 9.31367 109.079 6.17553 110.742 7.65211C112.405 9.12868 114.252 8.20596 114.252 8.20596C114.252 8.20596 117.577 5.2517 117.946 4.32897C118.315 3.40625 115.361 3.22126 113.882 3.22126C112.403 3.22126 112.034 2.29854 112.589 1.74468C113.143 1.19083 134.202 -13.0244 134.756 -13.9483C135.31 -14.8721 138.819 -19.4868 139.004 -22.2561C139.189 -25.0254 112.958 -26.1331 112.589 -24.6565C112.219 -23.1799 109.818 -20.7795 109.818 -20.7795C109.818 -20.7795 109.449 -23.9177 108.709 -25.9492C107.97 -27.9807 101.505 -34.9959 100.397 -30.565C99.2882 -26.1342 98.5489 -23.3649 97.4406 -23.3649C96.3322 -23.3649 89.6821 -20.7806 99.2882 -16.7186C108.894 -12.6567 97.9948 -12.6567 94.4857 -15.6109C90.9766 -18.5652 90.4213 -19.3029 91.1606 -15.2421L91.3457 -10.9962L87.2813 -13.7655C87.2813 -13.7655 84.649 -11.0882 87.697 -8.5958C90.745 -6.10345 91.0221 -6.51884 89.221 -5.27267C87.4199 -4.02649 86.7272 -4.99574 84.5104 -7.34963C82.2937 -9.70351 81.601 -5.27267 82.8479 -2.64186C84.0948 -0.0110416 81.601 -1.11875 80.6312 -2.64186C79.6614 -4.16496 78.1374 -7.34963 77.029 -5.27267C75.9206 -3.19571 78.4145 3.86595 80.6312 6.63523C82.8479 9.40451 81.601 18.2662 81.3239 18.6816C81.0468 19.097 74.3966 17.4354 75.0894 19.6508C75.7821 21.8663 82.4323 23.3894 80.2155 25.3279C77.9988 27.2663 75.2279 27.6817 73.1497 25.4663C71.0716 23.2509 65.2527 27.1279 68.7163 31.1433C72.1799 35.1588 69.9632 35.2972 67.1923 34.0511C64.4214 32.8049 60.4036 31.5587 60.6807 34.328C60.9578 37.0973 61.0963 37.5127 61.0963 37.5127C61.0963 37.5127 56.3858 36.9588 57.3556 39.1742C58.3254 41.3897 62.3432 40.005 63.1745 41.8051C64.0058 43.6051 61.6505 47.2051 59.1567 47.3436C56.6629 47.4821 51.5367 46.6513 54.4461 49.836C57.3556 53.0206 67.0537 51.0821 69.409 47.6205C71.7643 44.1589 72.5956 43.0512 73.2883 42.4974C73.981 41.9435 76.7519 39.8666 76.7519 39.8666L80.9448 37.5038L81.499 39.7192L75.403 43.8732L73.4634 48.0271L69.4456 51.9041C69.7227 54.6733 68.8914 60.7657 68.8914 60.7657L62.934 64.3658C62.934 64.3658 66.6747 64.7812 67.9216 63.9504C69.1685 63.1196 63.9038 68.3813 63.9038 68.3813L66.3976 70.8736C66.3976 70.8736 61.6871 73.366 61.1329 77.7968C60.5787 82.2276 57.2536 85.8277 56.4223 86.3816C55.5911 86.9354 55.0369 89.7047 57.5307 89.8432C60.0245 89.9816 63.0725 88.1816 63.0725 88.1816L64.7351 83.3354L65.7049 80.4276L67.2289 75.3045L70.831 72.9506L71.2467 68.5197L70.1383 64.9197L82.1917 57.7195C82.1917 57.7195 81.7761 64.0889 83.023 66.9966C84.2699 69.9044 89.119 70.7351 89.119 70.7351L81.6376 69.7659C81.6376 69.7659 79.0052 77.3814 79.0052 78.0737C79.0052 78.7661 82.8845 86.1046 82.8845 86.1046L76.7885 92.3355L70.9696 100.643L70.4154 105.49C70.4154 105.49 66.9518 106.043 66.5361 106.182C66.1205 106.32 72.9092 111.582 72.9092 111.582L74.7103 109.228L80.9448 118.367L83.1616 115.459C83.1616 115.459 82.7459 109.643 82.7459 109.367C82.7459 109.09 88.8419 116.982 88.8419 116.982L92.9983 116.151C92.9983 116.151 97.9859 111.444 99.9255 113.659C101.865 115.874 104.22 111.311 104.22 111.311L107.823 112.557L111.84 112.695L111.009 114.634C111.009 114.634 104.359 113.526 103.666 116.018C102.974 118.511 96.3233 126.542 96.3233 126.542C96.3233 126.542 98.4015 129.034 99.6484 132.911C100.895 136.788 98.9557 139.419 98.9557 139.419L100.48 140.803L103.251 139.419L102.974 144.542V145.234L106.16 146.203L110.455 141.219L111.425 143.988L108.238 148.142L109.485 150.08L108.792 152.019L103.389 151.188L102.281 155.204L106.16 158.111L106.022 160.05L100.48 164.065L101.311 168.773L108.515 173.896L106.022 176.666L100.895 169.909L98.6786 171.985L100.757 175.17L98.4015 177.801L96.6004 172.816C96.6004 172.816 92.3055 170.739 91.0586 172.539C89.8117 174.339 87.595 174.893 86.3481 173.37C85.1012 171.847 83.5772 169.77 83.5772 169.77C83.5772 169.77 81.2219 172.124 81.0834 172.539C80.9448 172.955 76.2343 172.816 76.2343 172.816L77.8968 169.216L71.2467 162.155L67.0903 166.032L71.1081 174.062L65.8434 180.432C65.8434 180.432 60.4402 183.893 60.4402 183.34C60.4402 182.786 62.6569 188.463 62.6569 188.463L70.2769 182.924L74.7103 188.601L74.8489 199.124L62.1027 210.201L56.0067 209.509L51.8504 214.632L40.6282 212.832L39.6584 222.94L42.4293 224.463L45.0616 229.033L51.1576 229.448L54.4827 225.709L60.7172 225.848L61.6871 235.125L66.259 234.71L68.6143 232.494L71.8009 233.463L74.1561 240.94L79.6979 245.648L84.2699 244.95L89.3961 239.55L92.9983 240.381L95.6306 241.766L89.8117 246.473L87.7336 251.181C87.7336 251.181 88.0106 251.874 87.595 251.874C87.1794 251.874 80.3907 253.397 80.3907 253.397L70.9696 247.443C70.9696 247.443 61.5485 247.997 61.2714 247.581C60.9943 247.166 56.9765 254.643 56.9765 254.643H53.6514L51.7118 251.043L48.1096 254.504L49.7722 260.043L41.1824 266.412C41.1824 266.412 39.1042 265.582 38.55 265.582C37.9958 265.582 36.0562 269.874 36.0562 269.874C36.0562 269.874 31.4842 272.228 31.6228 271.951C31.7613 271.674 30.0988 275.966 30.0988 275.966L19.985 276.088L15.8286 276.642L16.1057 280.519L16.0713 280.518Z" fill="#E0F3FE" stroke="#1D9EE9" stroke-width="2" mask="url(#path-1-inside-1_589_990)"/>
<path d="M42.9473 88.5195L49.6094 92.5664L48.8271 97.916L48.8154 97.999L48.8311 98.0811L49.6621 102.512L49.709 102.761L49.9365 102.87L53.4346 104.553L53.7773 107.067L47.4678 112.606L46.8447 113.153L47.6201 113.449L50.5293 114.557L50.6553 114.604L50.7881 114.583L56.123 113.715L55.3633 124.979L46.9277 125.638L46.6553 125.658L46.5264 125.899L43.6006 131.348L40.7266 131.708L35.8984 128.223L35.4502 127.899L35.1738 128.378L33.8457 130.669L29.5332 129.422L31.2041 126.083L31.3896 125.711L31.0586 125.46L26.6572 122.127L25.8506 115.003L25.7891 114.457L25.251 114.569L19.2939 115.815L18.9648 115.885L18.9043 116.215L17.7305 122.598L11.877 122.723L0.830078 108.659L12.334 105.253L12.9063 105.084L12.6387 104.55L10.6807 100.635L16.7236 101.118L17.0518 101.145L17.2061 100.854L17.207 100.852C17.2076 100.85 17.2088 100.849 17.21 100.847C17.2124 100.842 17.2159 100.835 17.2207 100.826C17.2304 100.808 17.2449 100.781 17.2637 100.745C17.3012 100.674 17.3565 100.571 17.4268 100.438C17.5675 100.174 17.7686 99.7954 18.0117 99.3418C18.4983 98.434 19.1518 97.224 19.8174 96.0146C20.4834 94.8045 21.1596 93.5987 21.6943 92.6973C21.9624 92.2453 22.1911 91.8771 22.3623 91.625C22.3952 91.5766 22.4247 91.5339 22.4512 91.4971C22.5187 91.5274 22.5977 91.565 22.6865 91.6104C22.9518 91.746 23.2747 91.9307 23.5918 92.1191C23.9074 92.3067 24.2114 92.4943 24.4365 92.6357C24.5488 92.7063 24.6408 92.7656 24.7051 92.8066C24.7369 92.827 24.7623 92.8426 24.7793 92.8535C24.7877 92.8589 24.7945 92.8634 24.7988 92.8662C24.8009 92.8676 24.8027 92.8685 24.8037 92.8691L24.8047 92.8701L24.8887 92.9238L24.9854 92.9424L28.7266 93.6348L29.0879 93.7012L29.2598 93.376L31.6934 88.7656L36.2793 90.2939L36.5605 90.3877L36.7773 90.1865L38.5723 88.5195H42.9473Z" fill="#E0F3FE" stroke="#1D9EE9"/>
</g>
<defs>
<clipPath id="clip0_589_990">
<rect width="206" height="320" fill="white" transform="translate(0 -32)"/>
</clipPath>
</defs>
</svg>
