<svg width="32" height="32" viewBox="0 0 32 32" fill="none" xmlns="http://www.w3.org/2000/svg">
<path d="M0.200117 14.9852C0.327087 14.6582 0.517477 14.3594 0.760353 14.106L14.0992 0.783599C14.348 0.535167 14.6433 0.338102 14.9683 0.203651C15.2932 0.0692014 15.6416 0 15.9933 0C16.7038 0 17.3851 0.281869 17.8875 0.783599C18.1362 1.03203 18.3335 1.32696 18.4681 1.65155C18.6028 1.97614 18.672 2.32404 18.672 2.67537C18.672 3.38493 18.3898 4.06542 17.8875 4.56715L9.08381 13.3333H29.3322C30.0398 13.3333 30.7183 13.614 31.2186 14.1137C31.7189 14.6133 32 15.2911 32 15.9977C32 16.7044 31.7189 17.3821 31.2186 17.8818C30.7183 18.3815 30.0398 18.6622 29.3322 18.6622H9.08381L17.8875 27.4283C18.1375 27.676 18.336 27.9707 18.4714 28.2954C18.6069 28.6201 18.6766 28.9683 18.6766 29.3201C18.6766 29.6718 18.6069 30.0201 18.4714 30.3448C18.336 30.6695 18.1375 30.9642 17.8875 31.2119C17.6395 31.4616 17.3444 31.6598 17.0193 31.7951C16.6942 31.9304 16.3455 32 15.9933 32C15.6412 32 15.2925 31.9304 14.9674 31.7951C14.6423 31.6598 14.3472 31.4616 14.0992 31.2119L0.760353 17.8895C0.517477 17.6361 0.327087 17.3373 0.200117 17.0102C-0.0667076 16.3615 -0.0667076 15.6339 0.200117 14.9852Z" fill="#1D9EE9"/>
</svg>