<svg width="64" height="64" viewBox="0 0 64 64" fill="none" xmlns="http://www.w3.org/2000/svg">
<rect x="2" y="2" width="60" height="60" rx="30" stroke="#1D9EE9" stroke-width="4"/>
<path d="M35.1817 27.2917L31.432 43.0268C31.405 43.1355 31.3847 43.2645 31.3712 43.414C31.3577 43.5499 31.3509 43.6722 31.3509 43.7809C31.3509 44.2565 31.5739 44.4943 32.0198 44.4943C32.5873 44.4943 33.2089 44.1206 33.8845 43.3732C34.5736 42.6259 35.1682 41.6815 35.6681 40.5401C35.7898 40.2548 35.9046 40.0713 36.0127 39.9898C36.1208 39.9083 36.3303 39.9355 36.641 40.0713L37.6139 40.4994C37.8842 40.6081 38.0125 40.7372 37.999 40.8866C37.999 41.0225 37.9315 41.2467 37.7963 41.5592C36.918 43.4752 35.7898 45.031 34.4115 46.2268C33.0332 47.4089 31.5333 48 29.9118 48C28.7498 48 27.8512 47.7146 27.2161 47.1439C26.5945 46.5732 26.2838 45.7512 26.2838 44.6777C26.2838 44.4739 26.304 44.2361 26.3446 43.9643C26.3986 43.679 26.4392 43.448 26.4662 43.2713L29.4862 29.9006C29.5673 29.5473 29.5673 29.3231 29.4862 29.228C29.4051 29.1193 29.1619 29.065 28.7565 29.065H26.8513C26.4864 29.065 26.25 29.0174 26.1419 28.9223C26.0473 28.8272 26 28.5894 26 28.2089V26.9248C26 26.6123 26.0608 26.4153 26.1824 26.3338C26.304 26.2522 26.5135 26.2115 26.8107 26.2115H34.2493C34.8304 26.2115 35.1614 26.2726 35.2425 26.3949C35.3236 26.5036 35.3033 26.8025 35.1817 27.2917ZM30.8645 18.9962C30.8645 18.0994 31.1753 17.3792 31.7968 16.8357C32.4184 16.2786 33.1616 16 34.0264 16C34.9047 16 35.6479 16.2786 36.2559 16.8357C36.8775 17.3792 37.1883 18.0994 37.1883 18.9962C37.1883 19.8794 36.8775 20.5996 36.2559 21.1567C35.6479 21.7138 34.9047 21.9924 34.0264 21.9924C33.1616 21.9924 32.4184 21.7138 31.7968 21.1567C31.1753 20.5996 30.8645 19.8794 30.8645 18.9962Z" fill="#1D9EE9"/>
</svg>
