<svg width="32" height="32" viewBox="0 0 32 32" fill="none" xmlns="http://www.w3.org/2000/svg">
<path d="M5.33337 8.00008C5.33337 7.26371 5.93033 6.66675 6.66671 6.66675H25.3334C26.0698 6.66675 26.6667 7.26371 26.6667 8.00008C26.6667 8.73645 26.0698 9.33341 25.3334 9.33341H6.66671C5.93033 9.33341 5.33337 8.73645 5.33337 8.00008Z" fill="black"/>
<path d="M5.33337 24.0001C5.33337 23.2637 5.93033 22.6667 6.66671 22.6667H25.3334C26.0698 22.6667 26.6667 23.2637 26.6667 24.0001C26.6667 24.7365 26.0698 25.3334 25.3334 25.3334H6.66671C5.93033 25.3334 5.33337 24.7365 5.33337 24.0001Z" fill="black"/>
<path d="M6.66671 14.6667C5.93033 14.6667 5.33337 15.2637 5.33337 16.0001C5.33337 16.7365 5.93033 17.3334 6.66671 17.3334H17.3334C18.0698 17.3334 18.6667 16.7365 18.6667 16.0001C18.6667 15.2637 18.0698 14.6667 17.3334 14.6667H6.66671Z" fill="black"/>
</svg>