<svg width="102" height="124" viewBox="0 0 102 124" fill="none" xmlns="http://www.w3.org/2000/svg">
<path d="M30.3366 36.2654C33.306 37.7363 36.9055 36.5216 38.3765 33.5523C39.8474 30.5829 38.6327 26.9834 35.6634 25.5124L33 30.8889L30.3366 36.2654ZM12 72.7475C12 69.4338 9.31371 66.7475 6 66.7475C2.68629 66.7475 0 69.4338 0 72.7475H6H12ZM55.2545 10.2308C57.5911 7.88106 57.5804 4.08209 55.2307 1.74551C52.8811 -0.591075 49.0821 -0.580446 46.7455 1.76925L51 6L55.2545 10.2308ZM28.5 28.6263L24.2455 24.3955C21.9182 26.7359 21.9182 30.5166 24.2455 32.857L28.5 28.6263ZM46.7455 55.4833C49.0821 57.833 52.8811 57.8436 55.2307 55.507C57.5804 53.1704 57.5911 49.3715 55.2545 47.0218L51 51.2525L46.7455 55.4833ZM33 30.8889C35.6634 25.5124 35.6671 25.5143 35.6709 25.5161C35.6721 25.5168 35.6759 25.5186 35.6783 25.5199C35.6833 25.5223 35.6881 25.5248 35.693 25.5272C35.7026 25.532 35.7121 25.5368 35.7213 25.5415C35.7398 25.551 35.7577 25.5602 35.7749 25.5693C35.8092 25.5873 35.8424 25.6053 35.8747 25.6236C35.9365 25.6584 36.0085 25.7014 36.089 25.7552C36.1792 25.8155 36.5823 26.0834 37.0069 26.6153C37.4025 27.1109 38.4438 28.6534 38.0499 30.8665C37.6566 33.0757 36.1633 34.0962 35.801 34.3168C35.2542 34.6497 35.5186 34.3062 38.3685 33.9883C40.9074 33.7051 44.891 33.4949 51 33.4949V27.4949V21.4949C44.6834 21.4949 40.2042 21.7091 37.0382 22.0622C34.1834 22.3807 31.501 22.8856 29.5605 24.0671C28.5015 24.7119 26.6996 26.1567 26.2356 28.7635C25.7708 31.3744 26.979 33.2881 27.6287 34.1019C28.3073 34.952 29.0514 35.485 29.4193 35.7309C29.6386 35.8775 29.8335 35.9934 29.9835 36.078C30.06 36.121 30.1286 36.1581 30.1873 36.189C30.2167 36.2045 30.244 36.2186 30.2689 36.2313C30.2814 36.2377 30.2932 36.2437 30.3045 36.2493C30.3102 36.2522 30.3157 36.2549 30.321 36.2576C30.3237 36.2589 30.3276 36.2609 30.3289 36.2615C30.3328 36.2635 30.3366 36.2654 33 30.8889ZM51 27.4949V33.4949C58.706 33.4949 66.2417 35.7927 72.6543 40.1015L76.0006 35.1214L79.347 30.1412C70.9592 24.5052 61.0943 21.4949 51 21.4949V27.4949ZM76.0006 35.1214L72.6543 40.1015C79.0674 44.4107 84.0708 50.5389 87.0268 57.7152L92.5746 55.4301L98.1224 53.1449C94.2664 43.7836 87.7343 35.7769 79.347 30.1412L76.0006 35.1214ZM92.5746 55.4301L87.0268 57.7152C89.9828 64.8918 90.7568 72.7907 89.2494 80.4115L95.1353 81.5758L101.021 82.74C102.987 72.8046 101.978 62.5059 98.1224 53.1449L92.5746 55.4301ZM95.1353 81.5758L89.2494 80.4115C87.742 88.0322 84.0221 95.0277 78.5653 100.515L82.8198 104.746L87.0743 108.977C94.2042 101.807 99.056 92.6756 101.021 82.74L95.1353 81.5758ZM82.8198 104.746L78.5653 100.515C73.1088 106.002 66.161 109.735 58.6022 111.247L59.7791 117.13L60.9559 123.014C70.8554 121.034 79.944 116.147 87.0743 108.977L82.8198 104.746ZM59.7791 117.13L58.6022 111.247C51.0436 112.759 43.2085 111.983 36.0863 109.017L33.7792 114.555L31.4722 120.094C40.7953 123.978 51.0562 124.994 60.9559 123.014L59.7791 117.13ZM33.7792 114.555L36.0863 109.017C28.9638 106.05 22.8707 101.023 18.5813 94.5679L13.5839 97.8884L8.58646 101.209C14.1864 109.637 22.1493 116.211 31.4722 120.094L33.7792 114.555ZM13.5839 97.8884L18.5813 94.5679C14.2916 88.112 12 80.5183 12 72.7475H6H0C0 82.8768 2.98678 92.7814 8.58646 101.209L13.5839 97.8884ZM51 6L46.7455 1.76925L24.2455 24.3955L28.5 28.6263L32.7545 32.857L55.2545 10.2308L51 6ZM28.5 28.6263L24.2455 32.857L46.7455 55.4833L51 51.2525L55.2545 47.0218L32.7545 24.3955L28.5 28.6263Z" fill="#8FD300"/>
</svg>
