<svg width="100" height="100" viewBox="0 0 100 100" fill="none" xmlns="http://www.w3.org/2000/svg">
<rect width="100" height="100" rx="50" fill="white" fill-opacity="0.96"/>
<path d="M69.9059 59.0109L65.5597 56.5018L67.4938 55.9782C67.7778 55.9117 68.0456 55.7886 68.2813 55.616C68.5169 55.4435 68.7155 55.2251 68.8653 54.9738C69.0151 54.7226 69.113 54.4436 69.1531 54.1536C69.1933 53.8636 69.1749 53.5684 69.099 53.2857C69.0231 53.0029 68.8913 52.7384 68.7115 52.5079C68.5316 52.2774 68.3074 52.0856 68.0522 51.9439C67.797 51.8022 67.5159 51.7135 67.2258 51.6832C66.9358 51.6529 66.6426 51.6814 66.3637 51.7673L60.2355 53.4255L54.3463 50L60.2355 46.5745L66.3637 48.2327H66.9287C67.5051 48.308 68.0876 48.1502 68.5481 47.7943C69.0087 47.4383 69.3095 46.9132 69.3844 46.3345C69.4593 45.7559 69.3022 45.1711 68.9477 44.7087C68.5931 44.2463 68.0701 43.9443 67.4938 43.8691L65.5597 43.4545L69.9059 40.9455C70.1542 40.8022 70.372 40.6112 70.5467 40.3835C70.7215 40.1557 70.8499 39.8957 70.9246 39.6181C70.9992 39.3405 71.0187 39.0509 70.9819 38.7658C70.9451 38.4807 70.8527 38.2056 70.71 37.9564C70.5673 37.7071 70.3771 37.4885 70.1503 37.313C69.9234 37.1375 69.6644 37.0086 69.3879 36.9337C69.1115 36.8587 68.823 36.8391 68.539 36.8761C68.255 36.9131 67.9811 37.0058 67.7328 37.1491L63.0388 39.8982L63.6908 37.4764C63.7762 37.1964 63.8047 36.902 63.7745 36.6108C63.7443 36.3196 63.656 36.0374 63.5149 35.7812C63.3737 35.5249 63.1827 35.2998 62.9531 35.1192C62.7235 34.9387 62.46 34.8064 62.1784 34.7302C61.8968 34.654 61.6028 34.6355 61.3139 34.6758C61.0251 34.7161 60.7472 34.8144 60.497 34.9648C60.2467 35.1152 60.0292 35.3146 59.8573 35.5512C59.6855 35.7878 59.5628 36.0566 59.4966 36.3418L57.7146 42.8873L52.1731 46.2255V39.3964L56.6715 34.88C57.0763 34.4712 57.3035 33.9182 57.3035 33.3418C57.3035 32.7654 57.0763 32.2124 56.6715 31.8036C56.4695 31.5991 56.2292 31.4368 55.9643 31.3261C55.6995 31.2153 55.4155 31.1583 55.1286 31.1583C54.8417 31.1583 54.5577 31.2153 54.2929 31.3261C54.028 31.4368 53.7877 31.5991 53.5857 31.8036L52.1731 33.2218V28.1818C52.1731 27.6032 51.9442 27.0482 51.5366 26.639C51.1291 26.2299 50.5763 26 50 26C49.4236 26 48.8709 26.2299 48.4634 26.639C48.0558 27.0482 47.8269 27.6032 47.8269 28.1818V33.5709L46.0666 31.8036C45.8646 31.5991 45.6242 31.4368 45.3594 31.3261C45.0946 31.2153 44.8106 31.1583 44.5237 31.1583C44.2368 31.1583 43.9528 31.2153 43.688 31.3261C43.4231 31.4368 43.1828 31.5991 42.9808 31.8036C42.576 32.2124 42.3488 32.7654 42.3488 33.3418C42.3488 33.9182 42.576 34.4712 42.9808 34.88L47.8269 39.7455V46.2909L42.2419 42.9745L40.4599 36.4291C40.3937 36.1439 40.2711 35.875 40.0992 35.6385C39.9273 35.4019 39.7098 35.2025 39.4596 35.0521C39.2093 34.9017 38.9315 34.8034 38.6426 34.7631C38.3537 34.7228 38.0597 34.7413 37.7781 34.8175C37.4965 34.8936 37.2331 35.0259 37.0034 35.2065C36.7738 35.3871 36.5828 35.6122 36.4417 35.8684C36.3005 36.1247 36.2122 36.4068 36.182 36.6981C36.1518 36.9893 36.1803 37.2837 36.2658 37.5636L36.9612 39.8982L32.2672 37.1927C32.0189 37.0495 31.745 36.9567 31.461 36.9197C31.177 36.8828 30.8885 36.9023 30.6121 36.9773C30.3356 37.0523 30.0766 37.1812 29.8497 37.3566C29.6229 37.5321 29.4327 37.7507 29.29 38C29.1473 38.2493 29.0549 38.5243 29.0181 38.8094C28.9813 39.0946 29.0008 39.3842 29.0754 39.6617C29.2262 40.2223 29.5926 40.6998 30.0941 40.9891L34.4403 43.4545L32.6149 44.0218C32.0385 44.097 31.5156 44.3991 31.161 44.8614C30.8064 45.3238 30.6493 45.9086 30.7243 46.4873C30.7992 47.0659 31.1 47.591 31.5605 47.947C32.021 48.303 32.6036 48.4607 33.1799 48.3855H33.7449L39.8732 46.7273L45.6537 50L39.7645 53.4255L33.6363 51.7673C33.3487 51.6601 33.0418 51.6152 32.7358 51.6356C32.4297 51.656 32.1314 51.7413 31.8605 51.8857C31.5896 52.0301 31.3523 52.2305 31.164 52.4737C30.9758 52.7168 30.8409 52.9972 30.7684 53.2964C30.6958 53.5956 30.6871 53.9069 30.7429 54.2097C30.7988 54.5125 30.9178 54.8 31.0922 55.0533C31.2666 55.3066 31.4925 55.52 31.7549 55.6794C32.0174 55.8388 32.3105 55.9406 32.6149 55.9782L34.549 56.5018L30.2027 59.0109C29.7013 59.3002 29.3349 59.7777 29.1841 60.3383C29.0333 60.8988 29.1105 61.4966 29.3986 62C29.6868 62.5034 30.1624 62.8713 30.7207 63.0227C31.2791 63.1741 31.8744 63.0966 32.3758 62.8073L36.9612 60.1018L36.3092 62.5236C36.2231 62.8029 36.1937 63.0967 36.2229 63.3876C36.2521 63.6785 36.3392 63.9606 36.4791 64.217C36.6189 64.4735 36.8087 64.6991 37.0371 64.8804C37.2655 65.0618 37.5279 65.1952 37.8087 65.2727C37.9964 65.2942 38.186 65.2942 38.3737 65.2727C38.8643 65.2896 39.3462 65.1392 39.7408 64.846C40.1354 64.5528 40.4195 64.1342 40.5468 63.6582L42.3288 57.1127L47.8269 53.7745V60.6036L43.3285 65.12C42.9237 65.5288 42.6965 66.0818 42.6965 66.6582C42.6965 67.2346 42.9237 67.7876 43.3285 68.1964C43.5297 68.4025 43.7697 68.5665 44.0346 68.6789C44.2994 68.7912 44.5839 68.8497 44.8714 68.8509C45.1589 68.8497 45.4433 68.7912 45.7082 68.6789C45.973 68.5665 46.2131 68.4025 46.4143 68.1964L47.8269 66.7782V71.8182C47.8269 72.3968 48.0558 72.9518 48.4634 73.361C48.8709 73.7701 49.4236 74 50 74C50.5763 74 51.1291 73.7701 51.5366 73.361C51.9442 72.9518 52.1731 72.3968 52.1731 71.8182V66.4291L53.9334 68.1964C54.1354 68.4009 54.3758 68.5632 54.6406 68.6739C54.9054 68.7847 55.1894 68.8417 55.4763 68.8417C55.7632 68.8417 56.0472 68.7847 56.312 68.6739C56.5769 68.5632 56.8172 68.4009 57.0192 68.1964C57.424 67.7876 57.6512 67.2346 57.6512 66.6582C57.6512 66.0818 57.424 65.5288 57.0192 65.12L52.1731 60.2545V53.7091L57.7581 56.96L59.5401 63.5055C59.6674 63.9814 59.9515 64.4001 60.3461 64.6933C60.7407 64.9865 61.2226 65.1369 61.7132 65.12C61.9009 65.1414 62.0905 65.1414 62.2782 65.12C62.5557 65.0466 62.8159 64.9188 63.0439 64.7439C63.2719 64.5689 63.4632 64.3504 63.6066 64.1009C63.7501 63.8514 63.8429 63.5759 63.8797 63.2902C63.9165 63.0045 63.8966 62.7143 63.8212 62.4364L63.0388 60.1018L67.6893 62.8073C67.9376 62.9505 68.2116 63.0433 68.4956 63.0803C68.7796 63.1172 69.068 63.0977 69.3445 63.0227C69.6209 62.9477 69.88 62.8188 70.1068 62.6434C70.3337 62.4679 70.5239 62.2493 70.6665 62C70.8092 61.7507 70.9016 61.4757 70.9384 61.1906C70.9753 60.9054 70.9558 60.6158 70.8811 60.3383C70.8064 60.0607 70.6781 59.8006 70.5033 59.5729C70.3285 59.3451 70.1108 59.1542 69.8625 59.0109H69.9059Z" fill="#1D9EE9"/>
</svg>
