<svg width="176" height="32" viewBox="0 0 176 32" fill="none" xmlns="http://www.w3.org/2000/svg">
<path d="M10.9923 9.78656L2.48564 11.0199L2.33497 11.0506C2.10689 11.1111 1.89897 11.2311 1.73243 11.3983C1.56589 11.5655 1.44671 11.7739 1.38706 12.0022C1.3274 12.2305 1.32941 12.4706 1.39288 12.6979C1.45634 12.9251 1.579 13.1315 1.74831 13.2959L7.91097 19.2946L6.45764 27.7679L6.44031 27.9146C6.42635 28.1505 6.47533 28.3858 6.58224 28.5966C6.68915 28.8073 6.85015 28.9859 7.04876 29.1139C7.24736 29.242 7.47643 29.315 7.71251 29.3254C7.94859 29.3358 8.18319 29.2833 8.39231 29.1732L16.0003 25.1732L23.591 29.1732L23.7243 29.2346C23.9444 29.3213 24.1836 29.3478 24.4173 29.3116C24.6511 29.2753 24.871 29.1775 25.0544 29.0283C25.2379 28.879 25.3784 28.6836 25.4614 28.4621C25.5445 28.2406 25.5671 28.001 25.527 27.7679L24.0723 19.2946L30.2376 13.2946L30.3416 13.1812C30.4902 12.9983 30.5876 12.7792 30.6239 12.5463C30.6603 12.3134 30.6342 12.0751 30.5484 11.8555C30.4626 11.636 30.3202 11.4431 30.1356 11.2966C29.951 11.15 29.7309 11.055 29.4976 11.0212L20.991 9.78656L17.1883 2.0799C17.0783 1.85661 16.9079 1.66858 16.6966 1.5371C16.4852 1.40562 16.2412 1.33594 15.9923 1.33594C15.7434 1.33594 15.4994 1.40562 15.2881 1.5371C15.0767 1.66858 14.9063 1.85661 14.7963 2.0799L10.9923 9.78656Z" fill="#FFBD24"/>
<path d="M46.9906 9.78656L38.4839 11.0199L38.3333 11.0506C38.1052 11.1111 37.8973 11.2311 37.7307 11.3983C37.5642 11.5655 37.445 11.7739 37.3853 12.0022C37.3257 12.2305 37.3277 12.4706 37.3912 12.6979C37.4546 12.9251 37.5773 13.1315 37.7466 13.2959L43.9093 19.2946L42.4559 27.7679L42.4386 27.9146C42.4246 28.1505 42.4736 28.3858 42.5805 28.5966C42.6874 28.8073 42.8484 28.9859 43.047 29.1139C43.2456 29.242 43.4747 29.315 43.7108 29.3254C43.9469 29.3358 44.1815 29.2833 44.3906 29.1732L51.9986 25.1732L59.5893 29.1732L59.7226 29.2346C59.9427 29.3213 60.1819 29.3478 60.4156 29.3116C60.6494 29.2753 60.8692 29.1775 61.0527 29.0283C61.2362 28.879 61.3767 28.6836 61.4597 28.4621C61.5428 28.2406 61.5654 28.001 61.5253 27.7679L60.0706 19.2946L66.2359 13.2946L66.3399 13.1812C66.4885 12.9983 66.5859 12.7792 66.6222 12.5463C66.6586 12.3134 66.6325 12.0751 66.5467 11.8555C66.4609 11.636 66.3185 11.4431 66.1339 11.2966C65.9493 11.15 65.7292 11.055 65.4959 11.0212L56.9893 9.78656L53.1866 2.0799C53.0766 1.85661 52.9062 1.66858 52.6949 1.5371C52.4835 1.40562 52.2395 1.33594 51.9906 1.33594C51.7417 1.33594 51.4977 1.40562 51.2863 1.5371C51.075 1.66858 50.9046 1.85661 50.7946 2.0799L46.9906 9.78656Z" fill="#FFBD24"/>
<path d="M82.9906 9.78656L74.4839 11.0199L74.3333 11.0506C74.1052 11.1111 73.8973 11.2311 73.7307 11.3983C73.5642 11.5655 73.445 11.7739 73.3853 12.0022C73.3257 12.2305 73.3277 12.4706 73.3912 12.6979C73.4546 12.9251 73.5773 13.1315 73.7466 13.2959L79.9093 19.2946L78.4559 27.7679L78.4386 27.9146C78.4246 28.1505 78.4736 28.3858 78.5805 28.5966C78.6874 28.8073 78.8484 28.9859 79.047 29.1139C79.2456 29.242 79.4747 29.315 79.7108 29.3254C79.9469 29.3358 80.1815 29.2833 80.3906 29.1732L87.9986 25.1732L95.5893 29.1732L95.7226 29.2346C95.9427 29.3213 96.1819 29.3478 96.4156 29.3116C96.6494 29.2753 96.8692 29.1775 97.0527 29.0283C97.2362 28.879 97.3767 28.6836 97.4597 28.4621C97.5428 28.2406 97.5654 28.001 97.5253 27.7679L96.0706 19.2946L102.236 13.2946L102.34 13.1812C102.488 12.9983 102.586 12.7792 102.622 12.5463C102.659 12.3134 102.632 12.0751 102.547 11.8555C102.461 11.636 102.319 11.4431 102.134 11.2966C101.949 11.15 101.729 11.055 101.496 11.0212L92.9893 9.78656L89.1866 2.0799C89.0766 1.85661 88.9062 1.66858 88.6949 1.5371C88.4835 1.40562 88.2395 1.33594 87.9906 1.33594C87.7417 1.33594 87.4977 1.40562 87.2863 1.5371C87.075 1.66858 86.9046 1.85661 86.7946 2.0799L82.9906 9.78656Z" fill="#FFBD24"/>
<path d="M118.991 9.78656L110.484 11.0199L110.333 11.0506C110.105 11.1111 109.897 11.2311 109.731 11.3983C109.564 11.5655 109.445 11.7739 109.385 12.0022C109.326 12.2305 109.328 12.4706 109.391 12.6979C109.455 12.9251 109.577 13.1315 109.747 13.2959L115.909 19.2946L114.456 27.7679L114.439 27.9146C114.425 28.1505 114.474 28.3858 114.581 28.5966C114.687 28.8073 114.848 28.9859 115.047 29.1139C115.246 29.242 115.475 29.315 115.711 29.3254C115.947 29.3358 116.181 29.2833 116.391 29.1732L123.999 25.1732L131.589 29.1732L131.723 29.2346C131.943 29.3213 132.182 29.3478 132.416 29.3116C132.649 29.2753 132.869 29.1775 133.053 29.0283C133.236 28.879 133.377 28.6836 133.46 28.4621C133.543 28.2406 133.565 28.001 133.525 27.7679L132.071 19.2946L138.236 13.2946L138.34 13.1812C138.488 12.9983 138.586 12.7792 138.622 12.5463C138.659 12.3134 138.632 12.0751 138.547 11.8555C138.461 11.636 138.319 11.4431 138.134 11.2966C137.949 11.15 137.729 11.055 137.496 11.0212L128.989 9.78656L125.187 2.0799C125.077 1.85661 124.906 1.66858 124.695 1.5371C124.483 1.40562 124.24 1.33594 123.991 1.33594C123.742 1.33594 123.498 1.40562 123.286 1.5371C123.075 1.66858 122.905 1.85661 122.795 2.0799L118.991 9.78656Z" fill="#FFBD24"/>
<path d="M154.991 9.78656L146.484 11.0199L146.333 11.0506C146.105 11.1111 145.897 11.2311 145.731 11.3983C145.564 11.5655 145.445 11.7739 145.385 12.0022C145.326 12.2305 145.328 12.4706 145.391 12.6979C145.455 12.9251 145.577 13.1315 145.747 13.2959L151.909 19.2946L150.456 27.7679L150.439 27.9146C150.425 28.1505 150.474 28.3858 150.581 28.5966C150.687 28.8073 150.848 28.9859 151.047 29.1139C151.246 29.242 151.475 29.315 151.711 29.3254C151.947 29.3358 152.181 29.2833 152.391 29.1732L159.999 25.1732L167.589 29.1732L167.723 29.2346C167.943 29.3213 168.182 29.3478 168.416 29.3116C168.649 29.2753 168.869 29.1775 169.053 29.0283C169.236 28.879 169.377 28.6836 169.46 28.4621C169.543 28.2406 169.565 28.001 169.525 27.7679L168.071 19.2946L174.236 13.2946L174.34 13.1812C174.488 12.9983 174.586 12.7792 174.622 12.5463C174.659 12.3134 174.632 12.0751 174.547 11.8555C174.461 11.636 174.319 11.4431 174.134 11.2966C173.949 11.15 173.729 11.055 173.496 11.0212L164.989 9.78656L161.187 2.0799C161.077 1.85661 160.906 1.66858 160.695 1.5371C160.483 1.40562 160.24 1.33594 159.991 1.33594C159.742 1.33594 159.498 1.40562 159.286 1.5371C159.075 1.66858 158.905 1.85661 158.795 2.0799L154.991 9.78656Z" fill="#FFBD24"/>
<path d="M160 1.33594C160.246 1.33736 160.487 1.40706 160.696 1.53711C160.908 1.66859 161.078 1.85679 161.188 2.08008L164.991 9.78613L173.498 11.0215C173.731 11.0553 173.951 11.1504 174.136 11.2969C174.32 11.4434 174.463 11.636 174.549 11.8555C174.635 12.0749 174.66 12.3132 174.624 12.5459C174.588 12.7788 174.49 12.9987 174.342 13.1816L174.237 13.2949L168.072 19.2949L169.527 27.7676C169.567 28.0007 169.544 28.2404 169.461 28.4619C169.378 28.6833 169.238 28.8791 169.055 29.0283C168.871 29.1776 168.651 29.2753 168.417 29.3115C168.183 29.3477 167.945 29.321 167.725 29.2344L167.591 29.1729L160 25.1729V1.33594Z" fill="#E5E5E5"/>
</svg>
