<svg width="80" height="80" viewBox="0 0 80 80" fill="none" xmlns="http://www.w3.org/2000/svg">
<path fill-rule="evenodd" clip-rule="evenodd" d="M58.3273 47.9405C57.332 47.4448 52.4388 45.0488 51.5264 44.7179C50.6142 44.3873 49.9508 44.2223 49.2872 45.2136C48.6237 46.2051 46.7163 48.4364 46.1356 49.0974C45.5552 49.7585 44.9745 49.8415 43.9794 49.3453C42.9841 48.8497 39.777 47.8038 35.9755 44.4289C33.0169 41.8025 31.0192 38.5589 30.4387 37.5672C29.8581 36.5756 30.3767 36.0396 30.875 35.5457C31.323 35.1019 31.8705 34.3888 32.368 33.8103C32.8658 33.2321 33.0316 32.8187 33.3633 32.1579C33.695 31.4967 33.5292 30.9184 33.2802 30.4227C33.0316 29.9269 31.0411 25.0513 30.2117 23.0677C29.4037 21.1365 28.5833 21.3981 27.9723 21.3675C27.3925 21.3388 26.7281 21.3328 26.0648 21.3328C25.4014 21.3328 24.323 21.5806 23.4106 22.572C22.4984 23.5636 19.9273 25.9602 19.9273 30.8354C19.9273 35.7112 23.4936 40.4209 23.9913 41.0821C24.4889 41.7433 31.0094 51.748 40.9937 56.0385C43.3681 57.0592 45.2222 57.6686 46.6675 58.125C49.0517 58.879 51.2214 58.7727 52.9364 58.5175C54.8486 58.2334 58.8248 56.1215 59.6544 53.8079C60.4836 51.4937 60.4836 49.5106 60.2348 49.0974C59.9861 48.6843 59.3227 48.4364 58.3273 47.9405ZM40.1673 72.6177H40.1539C34.213 72.6153 28.3862 71.0269 23.3031 68.0249L22.0941 67.3108L9.56375 70.5821L12.9083 58.4234L12.1212 57.1767C8.80703 51.9309 7.05656 45.8677 7.05922 39.6418C7.06656 21.4752 21.9186 6.69547 40.1805 6.69547C49.0234 6.69843 57.3359 10.1302 63.5869 16.3582C69.8377 22.5861 73.278 30.8645 73.2745 39.6684C73.267 57.8364 58.4152 72.6177 40.1673 72.6177ZM68.3442 11.6258C60.8238 4.13279 50.8227 0.00435407 40.1669 0C18.2116 0 0.342656 17.7823 0.33375 39.6393C0.330937 46.6264 2.165 53.4458 5.65094 59.4578L0 80L21.1158 74.4874C26.9339 77.6457 33.4844 79.3103 40.1511 79.3125H40.1675C62.1205 79.3125 79.9909 61.5283 80 39.671C80.0041 29.0787 75.8645 19.1189 68.3442 11.6258Z" fill="#8FD300"/>
</svg>
