<svg width="142" height="40" viewBox="0 0 142 40" fill="none" xmlns="http://www.w3.org/2000/svg">
<path fill-rule="evenodd" clip-rule="evenodd" d="M75.5548 39.0179H95.0398C97.9514 39.0179 100.341 37.8103 102.281 35.3942C104.148 33.0548 105.119 30.2628 105.119 27.094C105.119 20.679 96.9814 16.1507 93.8444 16.1507H83.1691C82.3478 16.1507 81.6746 15.7732 81.1532 15.1701C80.6302 14.4904 80.3319 13.7361 80.3319 12.83C80.3319 11.7735 80.6302 10.8681 81.1532 10.1132C81.7505 9.35896 82.4966 8.90628 83.393 8.90628H103.401V0.830169H83.0188C79.3604 0.830169 76.5225 1.96264 74.5066 4.15084C72.7161 6.18867 71.819 8.90552 71.819 12.151C71.819 15.3205 72.7161 18.1133 74.5066 20.376C76.5225 22.8665 78.9126 24.1508 81.8241 24.1508H94.1435C94.8888 24.1508 95.4869 24.3772 95.9339 24.9795C96.4569 25.5833 96.6808 26.3383 96.6808 27.1692C96.6808 28.1505 96.3074 29.0559 95.71 29.8109C95.0383 30.4899 94.2915 30.8674 93.3222 30.8674H73.6125L73.3142 30.3387L65.923 6.33982L65.5496 5.58484C63.7576 1.88668 60.7717 0.0759632 56.6655 0.0759632C54.4257 0.0759632 52.4098 0.603829 50.6178 1.7363C48.7514 2.86799 47.5567 4.52833 46.885 6.64212L36.955 38.942L45.9886 39.0187L55.0966 10.2651C55.3206 9.35896 55.8435 8.90628 56.5152 8.90628C56.8886 8.90628 57.1869 9.05667 57.4108 9.28377C57.6348 9.5853 57.7843 9.8876 57.8587 10.2651L67.0411 39.0187L75.5548 39.0179ZM8.36192 12.6037V38.942H0V9.73568C0 5.96233 0.89638 3.32067 2.83715 1.7363C4.3301 0.603829 6.56991 0 9.70535 0C12.2434 0 14.4089 0.754981 16.3496 2.18898C18.2904 3.62297 19.5595 5.58484 20.2319 8.00015L25.6816 27.3956L26.5779 30.0372C26.6523 30.5651 26.9514 30.9426 27.2497 31.2433C27.6231 31.5464 27.9958 31.6975 28.4443 31.5464C29.1912 31.4712 29.5646 31.0178 29.5646 30.3387V0.906126H38.1504V29.9613C38.1504 33.2067 37.4043 35.6228 35.8362 37.3583C34.3433 39.0939 32.1035 40 29.1168 40C26.5036 40 24.3381 39.4714 22.6213 38.566C20.531 37.5095 19.1868 35.8492 18.5895 33.6594L12.3186 11.5472L11.8708 10.1132C11.7213 9.5853 11.423 9.20781 11.0495 8.83032C10.6761 8.52802 10.2283 8.45284 9.78049 8.52803C9.33268 8.60398 9.03439 8.83033 8.73534 9.28301C8.48988 9.69244 8.36068 10.1623 8.36192 10.641V12.6037ZM142 39.0179L132.295 6.33982L131.921 5.58484C130.129 1.88668 127.143 0.0759632 123.037 0.0759632C120.797 0.0759632 118.781 0.603829 116.99 1.7363C115.122 2.86799 113.929 4.52833 113.256 6.64212L103.327 38.942L112.36 39.0187L121.468 10.2651C121.692 9.35896 122.215 8.90628 122.887 8.90628C123.26 8.90628 123.559 9.05667 123.782 9.28377C124.008 9.5853 124.156 9.8876 124.232 10.2651L133.414 39.0187L142 39.0179Z" fill="#D72143"/>
</svg>
